<svg id="calendar" xmlns="http://www.w3.org/2000/svg" width="29.402" height="30" viewBox="0 0 29.402 30">
  <path id="Vereinigungsmenge_11" data-name="Vereinigungsmenge 11" d="M21144.555,17726a2.546,2.546,0,0,1-2.551-2.561v-22.365a2.541,2.541,0,0,1,2.551-2.547h2.688v1.922a3.035,3.035,0,0,0,3.035,3.035h.566a3.033,3.033,0,0,0,3.027-3.035v-1.922h5.754v1.922a3.035,3.035,0,0,0,3.035,3.035h.531a3.033,3.033,0,0,0,3.027-3.035v-1.922h2.691a2.5,2.5,0,0,1,2.5,2.547v22.365a2.55,2.55,0,0,1-2.57,2.561Zm1.332-16.293v11.176a1.262,1.262,0,0,0,1.254,1.262h19.207a1.262,1.262,0,0,0,1.266-1.262h-.031v-11.176a1.267,1.267,0,0,0-1.266-1.264h-19.176A1.238,1.238,0,0,0,21145.887,17709.711Zm15.914,10.2a.836.836,0,0,1-.82-.82v-2.021a.836.836,0,0,1,.82-.822h2.746a.816.816,0,0,1,.824.822v2.021a.836.836,0,0,1-.824.82Zm-6.406,0a.836.836,0,0,1-.824-.82v-2.021a.837.837,0,0,1,.824-.822h2.75a.833.833,0,0,1,.816.822v2.021a.832.832,0,0,1-.816.82Zm-6.449,0a.836.836,0,0,1-.82-.82v-2.021a.836.836,0,0,1,.82-.822h2.746a.814.814,0,0,1,.824.822v2.021a.834.834,0,0,1-.824.82Zm12.855-5.586a.837.837,0,0,1-.82-.828v-2.025a.837.837,0,0,1,.82-.814h2.746a.817.817,0,0,1,.824.814v2.025a.838.838,0,0,1-.824.828Zm-6.406,0a.838.838,0,0,1-.824-.828v-2.025a.838.838,0,0,1,.824-.814h2.75a.834.834,0,0,1,.816.814v2.025a.834.834,0,0,1-.816.828Zm-6.449,0a.837.837,0,0,1-.82-.828v-2.025a.837.837,0,0,1,.82-.814h2.746a.815.815,0,0,1,.824.814v2.025a.835.835,0,0,1-.824.828Zm13.68-12.389a1.482,1.482,0,0,1-1.488-1.482v-2.84a1.623,1.623,0,0,1,1.617-1.609h.281a1.613,1.613,0,0,1,1.609,1.609v2.84a1.48,1.48,0,0,1-1.48,1.482Zm-12.285,0a1.436,1.436,0,0,1-1.484-1.482v-2.84a1.617,1.617,0,0,1,1.613-1.609h.273a1.614,1.614,0,0,1,1.613,1.609v2.84a1.475,1.475,0,0,1-1.48,1.482Z" transform="translate(-21142.004 -17696.004)" fill="#fff"/>
</svg>
