<svg id="cart" xmlns="http://www.w3.org/2000/svg" width="33.196" height="30" viewBox="0 0 33.196 30">
  <path id="Pfad_365" data-name="Pfad 365" d="M2.754,273.453a1.132,1.132,0,0,0-.259,2.24l2.5.548c1.324,6.333,2.767,12.64,4.166,18.957a1.132,1.132,0,0,0,1.105.886H30.143a1.132,1.132,0,1,0,0-2.263H11.178l-.5-2.263H31.145a1.132,1.132,0,0,0,1.105-.886l2.506-11.316a1.132,1.132,0,0,0-1.1-1.376q-12.988,0-25.976,0l-.615-2.919a1.132,1.132,0,0,0-.865-.872l-3.218-.7a1.119,1.119,0,0,0-.224-.029Zm11.083,23.963a3.018,3.018,0,1,0,3.018,3.018,3.035,3.035,0,0,0-3.018-3.018Zm12.847,0a3.018,3.018,0,1,0,3.018,3.018,3.035,3.035,0,0,0-3.018-3.018Z" transform="translate(-1.587 -273.452)" fill="#fff"/>
</svg>
