<svg id="membership" xmlns="http://www.w3.org/2000/svg" width="36.209" height="25" viewBox="0 0 36.209 25">
  <g id="Gruppe_945" data-name="Gruppe 945">
    <path id="Pfad_771" data-name="Pfad 771" d="M106.176.154h-27.7a4.269,4.269,0,0,0-4.257,4.258V20.9a4.269,4.269,0,0,0,4.257,4.257h27.7a4.27,4.27,0,0,0,4.257-4.257V4.412A4.27,4.27,0,0,0,106.176.154M93.346,12.116l-2.221,2.733.193,3.515a1.337,1.337,0,0,1-.559,1.162,1.4,1.4,0,0,1-.806.272,1.277,1.277,0,0,1-.48-.1l-3.289-1.251L82.9,19.7a1.354,1.354,0,0,1-1.84-1.332l.193-3.514-2.236-2.733a1.355,1.355,0,0,1-.222-1.273,1.336,1.336,0,0,1,.93-.9l3.418-.908,1.9-2.955a1.418,1.418,0,0,1,2.28,0l1.914,2.956,3.408.908a1.36,1.36,0,0,1,.939.9,1.386,1.386,0,0,1-.238,1.273M100.5,16.87H97.274a1.358,1.358,0,0,1-1.355-1.352v-.005a1.36,1.36,0,0,1,1.355-1.352H100.5a1.355,1.355,0,1,1,0,2.71m4.076-5.418h-7.3a1.363,1.363,0,0,1-1.355-1.368v0a1.359,1.359,0,0,1,1.355-1.348h7.3a1.36,1.36,0,0,1,0,2.72" transform="translate(-74.224 -0.154)" fill="#fff" fill-rule="evenodd"/>
    <path id="Pfad_772" data-name="Pfad 772" d="M88.349,17.552a1.308,1.308,0,0,0-.976,0l-1.808.693.094-1.942a1.3,1.3,0,0,0-.3-.923l-1.217-1.513,1.878-.5a1.366,1.366,0,0,0,.783-.569l1.055-1.633,1.054,1.633a1.385,1.385,0,0,0,.783.569l1.877.5L90.359,15.38a1.294,1.294,0,0,0-.295.923l.1,1.942Z" transform="translate(-75.878 -1.988)" fill="#fff"/>
  </g>
</svg>
