<svg id="pdf" xmlns="http://www.w3.org/2000/svg" xmlns:xlink="http://www.w3.org/1999/xlink" width="36.668" height="25" viewBox="0 0 36.668 25">
  <defs>
    <clipPath id="clip-path">
      <rect id="Rechteck_1417" data-name="Rechteck 1417" width="36.669" height="25" fill="#fff"/>
    </clipPath>
  </defs>
  <g id="Gruppe_947" data-name="Gruppe 947">
    <g id="Gruppe_946" data-name="Gruppe 946" clip-path="url(#clip-path)">
      <path id="Pfad_790" data-name="Pfad 790" d="M2.142,11.748V2.153H9.157l2.89,2.889a1.065,1.065,0,0,0,.756.309H30.26v.512h2.132v-1.6A1.066,1.066,0,0,0,31.326,3.2H13.24L10.383.309A1.064,1.064,0,0,0,9.636,0H1.108A1.066,1.066,0,0,0,.042,1.065v18.39Z" transform="translate(-0.007 0)" fill="#fff"/>
      <path id="Pfad_791" data-name="Pfad 791" d="M22.3,17.1h-.128v3.2H22.3a.938.938,0,0,0,.938-.927V18.041A.938.938,0,0,0,22.3,17.1" transform="translate(-3.516 -2.711)" fill="#fff"/>
      <path id="Pfad_792" data-name="Pfad 792" d="M15.108,17.1h-.533v1.066h.533a.533.533,0,0,0,0-1.066" transform="translate(-2.311 -2.711)" fill="#fff"/>
      <path id="Pfad_793" data-name="Pfad 793" d="M36.426,8.651a1.066,1.066,0,0,0-.842-.416H5.334a1.065,1.065,0,0,0-1.066.788L0,25.291a.465.465,0,0,0,0,.128v.15a1.568,1.568,0,0,0,.138.3v.075a1.189,1.189,0,0,0,.331.277H.558c.083.045.173.073-.558.086H30.495c1.32.017,1.762-.311,1.891-.789L36.65,9.525a1.068,1.068,0,0,0-.224-.874M12.8,18.9h-.533v1.066a1.066,1.066,0,0,1-2.132,0V14.631A1.066,1.066,0,0,1,11.2,13.565h1.6a2.665,2.665,0,0,1,0,5.331m9.061-.927a3.07,3.07,0,0,1-3.07,3.06H17.594a1.066,1.066,0,0,1-1.066-1.066V14.631a1.066,1.066,0,0,1,1.066-1.066h1.194a3.07,3.07,0,0,1,3.07,3.071ZM27.83,15.7H25.7v.533h1.066a1.066,1.066,0,1,1,0,2.132H25.7v1.6a1.066,1.066,0,0,1-2.132,0V14.631a1.066,1.066,0,0,1,1.066-1.066h3.2a1.066,1.066,0,0,1,0,2.132" transform="translate(0 -1.305)" fill="#fff"/>
    </g>
  </g>
</svg>
