<svg id="ticketHotel" xmlns="http://www.w3.org/2000/svg" width="36.229" height="25" viewBox="0 0 36.229 25">
  <path id="Pfad_770" data-name="Pfad 770" d="M179.124,10.04a1.25,1.25,0,0,0,1.25-1.25V1.29a1.25,1.25,0,0,0-1.25-1.25H145.4a1.25,1.25,0,0,0-1.25,1.25v7.5a1.249,1.249,0,0,0,1.25,1.25,2.5,2.5,0,1,1,0,5,1.25,1.25,0,0,0-1.25,1.25v7.5a1.249,1.249,0,0,0,1.25,1.25h33.727a1.25,1.25,0,0,0,1.25-1.25v-7.5a1.25,1.25,0,0,0-1.25-1.25,2.5,2.5,0,1,1,0-5M153.647,21.29a1.25,1.25,0,0,1-2.5,0v-2.5a1.25,1.25,0,1,1,2.5,0Zm0-7.5a1.25,1.25,0,0,1-2.5,0v-2.5a1.25,1.25,0,0,1,2.5,0Zm0-7.5a1.25,1.25,0,0,1-2.5,0V3.79a1.25,1.25,0,0,1,2.5,0Zm18.382,11.363h-1.047v-.74a1.236,1.236,0,0,0-1.248-1.217h-9.07a1.236,1.236,0,0,0-1.242,1.218v.74H158.37v-3.6c0-.043.006-.089.012-.138,0-.019.008-.039.008-.057v-.035a.24.24,0,0,0,.006-.042.6.6,0,0,1,.022-.1.174.174,0,0,1,.01-.036,1.028,1.028,0,0,1,.035-.1.05.05,0,0,1,0-.016c.013-.039.033-.077.049-.113a1.508,1.508,0,0,1,.583-.627l.047-.03.055-.026.077-.037a.235.235,0,0,1,.042-.016c.028-.012.058-.023.1-.034l.039-.012a.708.708,0,0,1,.1-.025.176.176,0,0,1,.04-.01l.112-.016h.019a1.207,1.207,0,0,1,.145-.007H170.7l.113.016a.176.176,0,0,1,.04.01.542.542,0,0,1,.1.025l.039.012a.922.922,0,0,1,.1.034.235.235,0,0,1,.042.016l.077.036.054.027.048.03a1.5,1.5,0,0,1,.582.627,1.039,1.039,0,0,1,.05.113.05.05,0,0,1,0,.016c.015.038.026.072.036.105a.174.174,0,0,1,.009.036.606.606,0,0,1,.022.1.123.123,0,0,1,.011.062.085.085,0,0,0,0,.033.086.086,0,0,1,.006.038,1.046,1.046,0,0,1,.007.141Zm0-4.747c-.017-.022-.036-.041-.052-.06l-.009-.009-.013-.016-.033-.034c-.023-.026-.047-.051-.073-.076a1.655,1.655,0,0,0-.213-.175l-.045-.035-.084-.051H171.5a.846.846,0,0,0-.084-.047l-.072-.037a1.172,1.172,0,0,0-.133-.057.371.371,0,0,0-.044-.017,1.809,1.809,0,0,0-.185-.057v-.8a1.5,1.5,0,0,0-1.512-1.479h-1.926a1.5,1.5,0,0,0-1.51,1.479v.751h-1.67v-.751a1.5,1.5,0,0,0-1.512-1.479h-1.927a1.5,1.5,0,0,0-1.511,1.479v.809c-.057.014-.118.033-.185.057l-.044.017c-.047.019-.092.037-.133.056l-.073.038a.814.814,0,0,0-.095.052l-.083.049-.047.036a1.853,1.853,0,0,0-.213.175c-.038.036-.072.073-.106.111l-.013.014-.023.026-.039.046V8.826a1.5,1.5,0,0,1,1.512-1.479h10.65a1.5,1.5,0,0,1,1.5,1.479Z" transform="translate(-144.147 -0.04)" fill="#fff" fill-rule="evenodd"/>
</svg>
