<?xml version="1.0" encoding="UTF-8"?>
<svg id="Ebene_2" data-name="Ebene 2" xmlns="http://www.w3.org/2000/svg" width="195.82" height="91.69" viewBox="0 0 195.82 91.69">
  <g id="Ebene_1-2" data-name="Ebene 1">
    <g>
      <polygon points="40.72 60.95 33.68 41.94 39.11 38.47 31.38 35.78 28.83 26.75 24.87 33.5 9.49 28.11 21.29 39.62 11.67 56.08 27.36 46 36.68 70.61 44.76 70.61 55.81 41.29 48.07 41.29 40.72 60.95" fill="#000" stroke-width="0"/>
      <path d="M74.02,40.66c-3.36,0-6.38,1.25-8.6,3.42v-15.74h-7.57v42.27h7.23v-3.13c2.28,2.39,5.41,3.76,8.94,3.76,7.69,0,13.95-6.6,13.95-15.25s-6.26-15.31-13.95-15.31M72.94,64.29c-4.16,0-7.51-3.7-7.51-8.25s3.36-8.42,7.51-8.42,7.51,3.64,7.51,8.42-3.36,8.25-7.51,8.25" fill="#000" stroke-width="0"/>
      <polygon points="123.37 41.29 118.25 58.85 112.9 41.29 105.38 41.29 100.03 58.85 94.91 41.29 86.94 41.29 96.05 70.61 103.85 70.61 109.14 53.4 114.43 70.61 122.18 70.61 131.34 41.29 123.37 41.29" fill="#000" stroke-width="0"/>
      <polygon points="10.53 20.72 15.81 25.88 13.76 18.64 17.18 16.45 12.7 14.89 11.22 9.65 8.93 13.57 0 10.44 6.85 17.12 1.27 26.66 10.53 20.72" fill="#000" stroke-width="0"/>
      <polygon points="21 6.2 23.96 9.09 22.81 5.03 24.72 3.81 22.22 2.93 21.39 0 20.1 2.19 15.1 .44 18.94 4.18 15.81 9.53 21 6.2" fill="#000" stroke-width="0"/>
      <polygon points="143.36 48.38 142.43 48.38 140.04 41.29 140.96 41.29 142.92 47.28 144.84 41.29 145.75 41.29 143.36 48.38" fill="#000" stroke-width="0"/>
      <polygon points="146.79 48.38 146.79 41.29 151.53 41.29 151.53 42.11 147.68 42.11 147.68 44.27 151.06 44.27 151.06 45.11 147.68 45.11 147.68 47.56 151.53 47.56 151.53 48.38 146.79 48.38" fill="#000" stroke-width="0"/>
      <path d="M157.24,48.39l-1.34-2.95h-1.96v2.95h-.89v-7.09h2.78c.83,0,1.41.23,1.8.63.34.36.56.82.56,1.44s-.2,1.04-.54,1.4c-.21.22-.51.39-.85.5l1.42,3.12h-.98ZM155.82,42.11h-1.89v2.49h1.89c.84,0,1.44-.34,1.44-1.24s-.6-1.25-1.44-1.25" fill="#000" stroke-width="0"/>
      <polygon points="159.67 48.38 159.67 41.29 164.41 41.29 164.41 42.11 160.56 42.11 160.56 44.27 163.94 44.27 163.94 45.11 160.56 45.11 160.56 47.56 164.41 47.56 164.41 48.38 159.67 48.38" fill="#000" stroke-width="0"/>
      <rect x="165.92" y="41.29" width=".91" height="7.09" fill="#000" stroke-width="0"/>
      <polygon points="173.18 48.38 169.69 42.68 169.69 48.38 168.83 48.38 168.83 41.29 169.83 41.29 173.31 47.01 173.31 41.29 174.18 41.29 174.18 48.38 173.18 48.38" fill="#000" stroke-width="0"/>
      <rect x="176.18" y="41.29" width=".91" height="7.09" fill="#000" stroke-width="0"/>
      <path d="M183.53,48.38l-.15-.85c-.35.58-1.13.99-1.93.99-.71,0-1.4-.23-1.91-.73-.72-.7-.92-1.68-.92-2.95,0-1.13.15-2.17.92-2.92.51-.5,1.2-.76,1.91-.76.8,0,1.54.28,2.03.8.34.36.58.81.61,1.38h-.93c-.03-.33-.14-.56-.32-.78-.32-.38-.81-.56-1.39-.56-.48,0-.95.19-1.29.54-.58.6-.62,1.56-.62,2.3s.05,1.73.64,2.33c.34.35.79.51,1.27.51s.97-.17,1.29-.49c.47-.46.61-1.15.61-1.8h-1.9v-.83h2.7v3.82h-.62Z" fill="#000" stroke-width="0"/>
      <polygon points="187.83 42.12 187.83 48.38 186.93 48.38 186.93 42.12 184.82 42.12 184.82 41.29 189.94 41.29 189.94 42.12 187.83 42.12" fill="#000" stroke-width="0"/>
      <polygon points="191.07 48.38 191.07 41.29 195.82 41.29 195.82 42.11 191.96 42.11 191.96 44.27 195.35 44.27 195.35 45.11 191.96 45.11 191.96 47.56 195.82 47.56 195.82 48.38 191.07 48.38" fill="#000" stroke-width="0"/>
      <path d="M145.64,58.85c-.4.43-1.08.65-1.78.65h-2.86v-7.09h2.83c.66,0,1.34.22,1.73.65.28.31.46.67.46,1.18,0,.68-.36,1.33-1.02,1.57.73.24,1.18.96,1.18,1.71,0,.57-.23,1-.54,1.33M143.83,53.2h-1.96v2.23h1.99c.74,0,1.25-.33,1.25-1.12,0-.74-.6-1.11-1.28-1.11M143.88,56.21h-2.01v2.47h1.99c.78,0,1.41-.38,1.41-1.22,0-.79-.64-1.25-1.39-1.25" fill="#000" stroke-width="0"/>
      <path d="M150.07,59.63c-1.59,0-2.59-.96-2.59-2.73v-4.49h.89v4.51c0,1.13.47,1.88,1.7,1.88s1.7-.75,1.7-1.88v-4.51h.89v4.49c0,1.77-1,2.73-2.59,2.73M148.84,50.67h.92v.92h-.92v-.92ZM150.6,50.67h.92v.92h-.92v-.92Z" fill="#000" stroke-width="0"/>
      <polygon points="158.76 59.5 158.76 56.23 155.35 56.23 155.35 59.5 154.46 59.5 154.46 52.41 155.35 52.41 155.35 55.37 158.76 55.37 158.76 52.41 159.65 52.41 159.65 59.5 158.76 59.5" fill="#000" stroke-width="0"/>
      <polygon points="165.99 59.5 162.51 53.8 162.51 59.5 161.65 59.5 161.65 52.41 162.65 52.41 166.13 58.13 166.13 52.41 166.99 52.41 166.99 59.5 165.99 59.5" fill="#000" stroke-width="0"/>
      <polygon points="168.99 59.5 168.99 52.41 173.73 52.41 173.73 53.23 169.88 53.23 169.88 55.39 173.26 55.39 173.26 56.23 169.88 56.23 169.88 58.68 173.73 58.68 173.73 59.5 168.99 59.5" fill="#000" stroke-width="0"/>
      <polygon points="179.59 59.5 176.11 53.8 176.11 59.5 175.24 59.5 175.24 52.41 176.25 52.41 179.73 58.13 179.73 52.41 180.59 52.41 180.59 59.5 179.59 59.5" fill="#000" stroke-width="0"/>
      <polygon points="146.6 70.61 145.65 70.61 144.03 64.9 142.39 70.61 141.45 70.61 140.03 63.52 140.86 63.52 141.99 69.3 143.63 63.62 144.43 63.62 146.07 69.29 147.2 63.52 148.01 63.52 146.6 70.61" fill="#000" stroke-width="0"/>
      <rect x="149.33" y="63.52" width=".91" height="7.09" fill="#000" stroke-width="0"/>
      <polygon points="152.24 70.61 152.24 63.52 156.99 63.52 156.99 64.34 153.13 64.34 153.13 66.5 156.52 66.5 156.52 67.34 153.13 67.34 153.13 69.79 156.99 69.79 156.99 70.61 152.24 70.61" fill="#000" stroke-width="0"/>
      <polygon points="162.84 70.61 159.36 64.91 159.36 70.61 158.5 70.61 158.5 63.52 159.5 63.52 162.98 69.24 162.98 63.52 163.84 63.52 163.84 70.61 162.84 70.61" fill="#000" stroke-width="0"/>
      <path d="M150.35,86.39h-3.15v1.75c0,.37.03.6.07.71.05.1.15.16.29.16.18,0,.3-.07.36-.21.06-.14.09-.41.09-.82v-1.07h2.33v.6c0,.5-.03.88-.1,1.15-.06.27-.21.56-.44.86-.23.3-.52.53-.87.68-.35.15-.79.23-1.33.23s-.97-.07-1.37-.22c-.4-.15-.71-.36-.92-.62-.22-.26-.37-.55-.46-.86-.09-.31-.13-.77-.13-1.37v-2.35c0-.7.1-1.26.28-1.66.19-.41.5-.72.93-.94.43-.22.93-.33,1.49-.33.68,0,1.25.13,1.7.39.44.26.76.61.94,1.04.18.43.27,1.04.27,1.82v1.07ZM147.89,85.07v-.59c0-.42-.02-.68-.07-.81-.04-.12-.13-.18-.26-.18-.16,0-.27.05-.3.15-.04.1-.06.38-.06.83v.59h.69Z" fill="#000" stroke-width="0"/>
      <path d="M153.66,82.22l-.04.74c.18-.3.39-.52.65-.67.26-.15.55-.22.88-.22.42,0,.76.1,1.03.3.27.2.44.45.51.75.07.3.11.8.11,1.51v5.64h-2.46v-5.58c0-.55-.02-.89-.06-1.01-.03-.12-.13-.18-.29-.18-.17,0-.27.07-.32.21-.04.14-.06.51-.06,1.12v5.44h-2.46v-8.04h2.5Z" fill="#000" stroke-width="0"/>
      <path d="M160.12,80.45v2.21c.21-.2.44-.34.68-.44.25-.1.51-.15.79-.15.43,0,.8.11,1.09.33.3.22.48.47.55.75.06.29.1.81.1,1.57v5.55h-2.46v-5.67c0-.47-.03-.77-.07-.91-.05-.13-.15-.2-.31-.2-.15,0-.25.07-.3.2-.05.14-.08.41-.08.82v5.75h-2.46v-9.82h2.46Z" fill="#000" stroke-width="0"/>
      <path d="M169.72,85.05v1.97c0,.72-.04,1.26-.11,1.59-.07.34-.23.65-.47.95-.24.29-.55.51-.92.65-.37.14-.8.2-1.29.2-.54,0-1-.06-1.38-.18-.38-.12-.66-.3-.87-.54-.21-.24-.36-.53-.45-.88-.09-.34-.13-.85-.13-1.54v-2.07c0-.75.08-1.34.24-1.76.16-.42.45-.76.87-1.01.42-.26.96-.38,1.61-.38.55,0,1.03.08,1.42.24.39.16.7.38.91.64.21.26.36.54.44.82.07.28.12.7.12,1.27M167.26,84.44c0-.41-.02-.67-.06-.78-.04-.11-.14-.16-.28-.16s-.23.05-.28.16c-.05.11-.07.37-.07.78v3.64c0,.38.03.63.07.74.05.12.14.17.27.17s.24-.05.28-.16c.04-.11.07-.33.07-.68v-3.72Z" fill="#000" stroke-width="0"/>
      <rect x="170.52" y="80.45" width="2.53" height="9.82" fill="#000" stroke-width="0"/>
      <path d="M179.5,80.45v9.82h-2.46v-.58c-.23.25-.48.43-.73.55-.26.12-.53.18-.81.18-.38,0-.7-.1-.98-.3-.28-.2-.45-.43-.53-.7-.08-.26-.12-.69-.12-1.29v-3.77c0-.62.04-1.06.12-1.32.08-.26.26-.49.54-.68.28-.19.61-.29,1-.29.3,0,.58.05.83.16.25.11.48.27.68.49v-2.28h2.46ZM177.03,84.24c0-.29-.02-.5-.07-.6-.06-.1-.15-.15-.29-.15s-.23.04-.28.13c-.05.09-.07.29-.07.61v3.95c0,.33.02.54.07.65.05.1.14.16.27.16.15,0,.25-.06.3-.17.05-.11.07-.4.07-.85v-3.73Z" fill="#000" stroke-width="0"/>
      <path d="M140.89,82.23l-.98,8.04h-2.64c-.15-.98-.32-2.28-.51-3.9-.07.72-.17,1.43-.28,2.15l-.27,1.74h-2.64l-1.04-8.04h2.09c.02.21.21,1.75.55,4.62.04-.3.22-1.85.56-4.62h2.02l.49,4.62c.09-1.35.28-2.9.56-4.62h2.1Z" fill="#000" stroke-width="0"/>
      <path d="M186.22,82.26l-.04.74c.18-.29.4-.52.65-.66.26-.15.55-.22.88-.22.42,0,.76.1,1.03.3.27.2.43.45.52.75.08.3.12.81.12,1.51v5.65h-2.46v-5.58c0-.55-.02-.89-.06-1.01-.03-.12-.13-.18-.29-.18-.17,0-.28.07-.32.21-.05.14-.07.51-.07,1.12v5.45h-2.46v-8.05h2.5Z" fill="#000" stroke-width="0"/>
      <path d="M195.81,82.26v6.2c0,.83-.02,1.38-.06,1.62-.04.24-.18.5-.41.78-.23.27-.56.47-.98.62-.42.14-.95.21-1.59.21-.78,0-1.41-.13-1.88-.4-.48-.27-.72-.79-.73-1.56h2.38c0,.36.13.54.39.54.19,0,.31-.05.38-.16.06-.11.09-.34.09-.69v-.61c-.21.19-.43.33-.67.43-.23.1-.48.15-.73.15-.44,0-.81-.09-1.09-.26-.29-.18-.48-.41-.59-.7-.11-.29-.16-.7-.16-1.23v-2.92c0-.76.14-1.31.41-1.65.28-.33.7-.5,1.26-.5.31,0,.59.06.84.19.26.13.48.32.68.57l.18-.61h2.29ZM193.34,84.39c0-.37-.02-.6-.06-.7-.04-.1-.14-.15-.28-.15s-.24.06-.3.17c-.06.12-.09.35-.09.68v2.71c0,.36.02.59.07.7.05.11.14.16.28.16.16,0,.27-.06.31-.19.06-.13.08-.42.08-.88v-2.49Z" fill="#000" stroke-width="0"/>
      <rect x="141.31" y="80.5" width="2.53" height="8.05" fill="#000" stroke-width="0"/>
      <rect x="180.42" y="80.47" width="2.52" height="8.05" fill="#000" stroke-width="0"/>
      <rect x="141.31" y="89.04" width="2.53" height="1.27" fill="#000" stroke-width="0"/>
      <rect x="180.42" y="89.01" width="2.52" height="1.27" fill="#000" stroke-width="0"/>
      <path d="M37.4,87.36c0,.34.03.65.09.94.06.28.14.53.26.75.11.21.25.38.42.5.17.12.37.18.61.18.3,0,.54-.09.72-.27s.32-.4.43-.66l.62.36c-.15.37-.37.68-.67.94-.29.25-.67.38-1.12.38-.69,0-1.22-.29-1.6-.87-.38-.58-.57-1.38-.57-2.4,0-.48.05-.92.15-1.33s.24-.75.43-1.04c.19-.29.41-.52.68-.68.27-.16.57-.24.9-.24.36,0,.67.08.92.23.25.16.46.37.61.65.16.27.27.59.34.96.07.36.11.76.11,1.17v.45h-3.32ZM39.9,86.68c0-.62-.1-1.12-.29-1.5-.19-.38-.49-.57-.9-.57-.24,0-.44.07-.61.22-.16.15-.29.32-.4.54-.1.21-.18.44-.22.68-.05.24-.07.45-.07.64h2.49Z" fill="#000" stroke-width="0"/>
      <path d="M43.16,82.21c0,.17-.05.32-.16.43-.11.11-.24.17-.39.17-.16,0-.29-.06-.39-.17-.1-.11-.16-.26-.16-.43,0-.16.05-.31.16-.42.1-.12.23-.17.39-.17s.29.06.39.17c.1.12.15.26.15.42M42.21,84.1h.82v6.16h-.82v-6.16Z" fill="#000" stroke-width="0"/>
      <path d="M48.1,90.27v-3.98c0-.19,0-.38-.03-.58-.02-.2-.07-.37-.14-.53-.07-.16-.17-.29-.3-.4-.13-.1-.3-.16-.5-.16s-.39.06-.55.17c-.16.11-.3.27-.41.46-.11.2-.2.42-.26.67-.06.25-.09.52-.09.79v3.55h-.82v-4.61c0-.13,0-.28,0-.43,0-.15,0-.3-.01-.45,0-.15,0-.28-.01-.4,0-.12-.01-.21-.02-.28h.79c.02.16.03.35.04.57,0,.22.01.43.01.64h.03c.12-.42.31-.75.57-1.01.26-.26.6-.39.99-.39.33,0,.6.07.8.21.2.14.36.33.47.55.11.23.18.48.22.77.04.28.06.57.06.85v3.98h-.82Z" fill="#000" stroke-width="0"/>
      <path d="M53.85,84.1v3.98c0,.19.01.38.03.58.02.2.07.37.14.54.07.16.17.29.29.4.12.1.29.15.51.15s.39-.06.55-.17c.16-.11.3-.26.41-.46.11-.19.2-.42.26-.67.06-.25.09-.52.09-.79v-3.56h.82v4.61c0,.13,0,.28,0,.43,0,.15,0,.3.01.45,0,.15,0,.28.01.4,0,.12,0,.22.02.27h-.79c-.02-.16-.03-.35-.04-.57,0-.22-.01-.44-.01-.64h-.02c-.12.42-.31.75-.57,1.01-.26.26-.6.39-.99.39-.33,0-.6-.07-.8-.21-.2-.14-.36-.33-.47-.55-.11-.23-.18-.48-.22-.76-.04-.28-.06-.57-.06-.86v-3.98h.82Z" fill="#000" stroke-width="0"/>
      <path d="M62.08,90.27v-3.98c0-.19,0-.38-.03-.58-.02-.2-.07-.37-.14-.53-.07-.16-.17-.29-.3-.4-.13-.1-.3-.16-.5-.16s-.39.06-.55.17c-.16.11-.3.27-.41.46-.11.2-.2.42-.26.67-.06.25-.09.52-.09.79v3.55h-.82v-4.61c0-.13,0-.28,0-.43,0-.15,0-.3-.01-.45,0-.15,0-.28-.01-.4,0-.12,0-.21-.02-.28h.79c.02.16.03.35.04.57,0,.22.01.43.01.64h.02c.12-.42.31-.75.57-1.01.26-.26.6-.39.99-.39.33,0,.6.07.8.21.2.14.36.33.47.55.11.23.18.48.22.77.04.28.06.57.06.85v3.98h-.82Z" fill="#000" stroke-width="0"/>
      <path d="M66.43,90.38c-.13.03-.27.05-.41.05-.43,0-.74-.15-.91-.45-.18-.3-.27-.7-.27-1.19v-4.01h-.81v-.67h.79v-1.7h.81v1.7h1.09v.67h-1.09v3.86c0,.37.05.65.16.82.11.17.27.25.49.25.07,0,.15-.01.24-.03.08-.02.15-.04.21-.07l.04.66c-.09.04-.2.08-.34.11" fill="#000" stroke-width="0"/>
      <path d="M68.32,87.36c0,.34.03.65.09.94.06.28.14.53.26.75.11.21.25.38.43.5.17.12.37.18.61.18.3,0,.54-.09.72-.27s.32-.4.42-.66l.62.36c-.15.37-.37.68-.66.94-.29.25-.67.38-1.12.38-.69,0-1.22-.29-1.6-.87-.38-.58-.57-1.38-.57-2.4,0-.48.05-.92.15-1.33.1-.41.24-.75.43-1.04.18-.29.41-.52.68-.68.27-.16.57-.24.9-.24.36,0,.67.08.92.23.25.16.46.37.61.65.16.27.27.59.34.96.07.36.11.76.11,1.17v.45h-3.32ZM70.82,86.68c0-.62-.1-1.12-.29-1.5-.19-.38-.49-.57-.9-.57-.24,0-.44.07-.61.22-.16.15-.29.32-.4.54-.1.21-.18.44-.23.68-.05.24-.07.45-.07.64h2.49Z" fill="#000" stroke-width="0"/>
      <path d="M74.53,84.28c.24-.24.51-.36.82-.36.07,0,.11,0,.15.01l-.02.85s-.07-.02-.09-.02c-.03,0-.06,0-.11,0-.21,0-.39.07-.55.21-.16.14-.3.32-.4.55-.11.22-.19.48-.24.76-.05.29-.08.57-.08.85v3.14h-.82v-4.61c0-.13,0-.28,0-.43,0-.15,0-.3-.01-.45,0-.15,0-.28-.01-.4,0-.12,0-.21-.02-.28h.79c.02.16.03.35.04.59,0,.24.01.49.01.75h.02c.12-.54.29-.93.54-1.17" fill="#000" stroke-width="0"/>
      <path d="M79.69,90.27v-3.98c0-.19,0-.38-.03-.58-.02-.2-.07-.37-.14-.53-.07-.16-.17-.29-.3-.4-.13-.1-.3-.16-.5-.16s-.39.06-.55.17c-.16.11-.3.27-.41.46-.11.2-.2.42-.26.67-.06.25-.09.52-.09.79v3.55h-.82v-4.61c0-.13,0-.28,0-.43,0-.15,0-.3-.01-.45,0-.15,0-.28-.01-.4,0-.12,0-.21-.02-.28h.8c.02.16.03.35.04.57,0,.22.01.43.01.64h.02c.12-.42.31-.75.57-1.01.26-.26.6-.39.99-.39.33,0,.6.07.8.21.2.14.36.33.47.55.11.23.18.48.22.77.04.28.06.57.06.85v3.98h-.82Z" fill="#000" stroke-width="0"/>
      <path d="M82.82,87.36c0,.34.03.65.09.94.06.28.14.53.26.75.11.21.26.38.43.5.17.12.37.18.61.18.3,0,.54-.09.72-.27.18-.18.33-.4.43-.66l.62.36c-.15.37-.37.68-.67.94-.29.25-.67.38-1.12.38-.69,0-1.22-.29-1.6-.87-.38-.58-.57-1.38-.57-2.4,0-.48.05-.92.15-1.33s.24-.75.43-1.04c.18-.29.41-.52.68-.68.27-.16.57-.24.9-.24.36,0,.67.08.92.23.25.16.46.37.61.65.16.27.27.59.34.96.07.36.11.76.11,1.17v.45h-3.32ZM85.32,86.68c0-.62-.1-1.12-.29-1.5-.19-.38-.49-.57-.9-.57-.24,0-.44.07-.61.22-.16.15-.29.32-.4.54-.11.21-.18.44-.23.68-.04.24-.07.45-.07.64h2.49Z" fill="#000" stroke-width="0"/>
      <path d="M90.74,90.27v-3.98c0-.19-.01-.38-.03-.58-.02-.2-.06-.37-.13-.53-.07-.16-.16-.29-.29-.4-.13-.1-.29-.16-.5-.16s-.39.06-.55.17c-.16.11-.3.27-.42.46-.12.2-.21.42-.27.67-.06.25-.09.52-.09.79v3.55h-.82v-9.4h.82v4.4h.03c.11-.4.29-.73.56-.98.26-.26.59-.39.99-.39.33,0,.6.07.8.21s.36.33.46.55c.11.23.18.48.22.77.04.28.06.57.06.85v3.98h-.82Z" fill="#000" stroke-width="0"/>
      <path d="M94.84,84.3c.26-.26.6-.39,1.01-.39.22,0,.41.04.57.12.16.08.3.18.41.31.11.13.2.28.26.45.06.17.11.35.14.53h.02c.05-.18.12-.36.21-.53.09-.17.21-.32.34-.45.14-.13.29-.24.47-.32.18-.08.38-.12.6-.12.33,0,.6.07.79.21.2.14.35.33.46.55.11.23.19.48.22.77.04.29.06.57.06.85v3.98h-.82v-3.98c0-.19-.01-.38-.03-.58-.02-.2-.06-.37-.13-.53-.07-.16-.16-.3-.29-.4-.13-.1-.3-.16-.52-.16-.2,0-.38.06-.54.17s-.3.27-.4.46c-.11.19-.19.42-.25.67-.06.25-.09.52-.09.79v3.55h-.82v-3.98c0-.19-.01-.39-.03-.58-.02-.2-.06-.38-.12-.54-.06-.16-.16-.29-.28-.39-.13-.1-.29-.15-.5-.15s-.39.06-.54.17c-.16.11-.29.27-.4.46-.11.19-.2.42-.25.67-.06.25-.09.52-.09.79v3.55h-.82v-4.61c0-.13,0-.28,0-.43,0-.15,0-.3-.01-.45,0-.15,0-.28-.01-.4,0-.12,0-.21-.02-.28h.81c.02.16.03.35.04.57,0,.22.01.43.01.64h.02c.09-.41.27-.75.53-1.01" fill="#000" stroke-width="0"/>
      <path d="M102.74,87.36c0,.34.03.65.09.94.06.28.14.53.26.75.11.21.25.38.43.5.17.12.37.18.61.18.3,0,.54-.09.72-.27.18-.18.32-.4.42-.66l.62.36c-.15.37-.37.68-.66.94-.29.25-.67.38-1.12.38-.69,0-1.22-.29-1.6-.87-.38-.58-.57-1.38-.57-2.4,0-.48.05-.92.15-1.33s.24-.75.43-1.04c.19-.29.41-.52.68-.68.27-.16.57-.24.9-.24.36,0,.67.08.92.23.25.16.46.37.61.65.16.27.27.59.34.96.07.36.11.76.11,1.17v.45h-3.32ZM105.24,86.68c0-.62-.1-1.12-.29-1.5-.19-.38-.49-.57-.9-.57-.24,0-.44.07-.61.22-.16.15-.3.32-.4.54-.1.21-.18.44-.23.68-.04.24-.07.45-.07.64h2.49Z" fill="#000" stroke-width="0"/>
      <path d="M110.71,90.27v-3.98c0-.19,0-.38-.03-.58-.02-.2-.07-.37-.14-.53-.07-.16-.17-.29-.3-.4-.13-.1-.3-.16-.5-.16s-.39.06-.55.17c-.16.11-.3.27-.41.46-.11.2-.2.42-.26.67-.06.25-.09.52-.09.79v3.55h-.82v-4.61c0-.13,0-.28,0-.43,0-.15,0-.3-.01-.45,0-.15,0-.28-.01-.4,0-.12,0-.21-.02-.28h.8c.02.16.03.35.04.57,0,.22.01.43.01.64h.02c.12-.42.31-.75.57-1.01.26-.26.6-.39.99-.39.33,0,.6.07.8.21.2.14.36.33.47.55.11.23.18.48.22.77.04.28.06.57.06.85v3.98h-.82Z" fill="#000" stroke-width="0"/>
      <path d="M118.78,90.27v-1.11h-.02c-.1.37-.27.68-.5.93-.23.25-.56.37-.98.37-.31,0-.59-.08-.83-.25-.24-.17-.44-.4-.61-.69-.17-.29-.29-.64-.38-1.04-.09-.4-.13-.84-.13-1.32s.04-.92.12-1.32c.08-.4.2-.74.37-1.03.16-.29.36-.51.61-.67.24-.16.52-.24.84-.24.37,0,.69.11.94.34.26.23.43.53.52.9h.03v-4.28h.82v9.4h-.79ZM118.78,87.19c0-.36-.03-.7-.08-1.02-.05-.31-.14-.59-.25-.81-.11-.23-.25-.41-.42-.54-.17-.13-.36-.2-.57-.2s-.42.07-.58.2c-.16.13-.3.31-.4.54-.11.23-.19.5-.24.81-.05.32-.07.65-.07,1.02s.02.69.07,1c.05.31.13.58.24.82.11.23.24.41.4.55.16.13.35.2.58.2s.42-.07.58-.2c.16-.13.3-.32.41-.55.11-.23.2-.5.25-.82.05-.31.08-.64.08-1" fill="#000" stroke-width="0"/>
      <path d="M121.93,87.36c0,.34.03.65.09.94.06.28.14.53.25.75.11.21.26.38.43.5.17.12.37.18.61.18.3,0,.54-.09.72-.27s.32-.4.42-.66l.62.36c-.15.37-.37.68-.67.94-.29.25-.67.38-1.12.38-.69,0-1.22-.29-1.6-.87-.38-.58-.57-1.38-.57-2.4,0-.48.05-.92.15-1.33s.24-.75.43-1.04c.19-.29.41-.52.68-.68.27-.16.57-.24.9-.24.36,0,.67.08.92.23.25.16.46.37.61.65.16.27.27.59.34.96.07.36.11.76.11,1.17v.45h-3.32ZM124.43,86.68c0-.62-.1-1.12-.29-1.5-.19-.38-.49-.57-.9-.57-.24,0-.44.07-.61.22-.16.15-.29.32-.4.54-.1.21-.18.44-.23.68-.05.24-.07.45-.07.64h2.49Z" fill="#000" stroke-width="0"/>
      <path d="M128.15,84.28c.24-.24.51-.36.82-.36.07,0,.12,0,.15.01l-.02.85s-.06-.02-.09-.02c-.03,0-.06,0-.1,0-.21,0-.39.07-.55.21-.16.14-.3.32-.4.55-.11.22-.19.48-.24.76-.05.29-.08.57-.08.85v3.14h-.82v-4.61c0-.13,0-.28,0-.43,0-.15,0-.3-.01-.45,0-.15,0-.28-.01-.4,0-.12,0-.21-.02-.28h.79c.02.16.03.35.04.59,0,.24.01.49.01.75h.02c.12-.54.29-.93.54-1.17" fill="#000" stroke-width="0"/>
    </g>
  </g>
</svg>