<svg id="Komponente_11_224" data-name="Komponente 11 – 224" xmlns="http://www.w3.org/2000/svg" width="22.413" height="22.277" viewBox="0 0 22.413 22.277">
  <path id="Pfad_30" data-name="Pfad 30" d="M-1529.587-103.793A11.207,11.207,0,0,0-1540.793-115,11.207,11.207,0,0,0-1552-103.793a11.209,11.209,0,0,0,9.456,11.071v-7.831h-2.845v-3.239h2.845v-2.469c0-2.809,1.673-4.36,4.233-4.36a17.233,17.233,0,0,1,2.509.219v2.758h-1.413a1.62,1.62,0,0,0-1.826,1.75v2.1h3.108l-.5,3.239h-2.611v7.831A11.209,11.209,0,0,0-1529.587-103.793Z" transform="translate(1552 115)" fill="#000000"/>
</svg>
