<svg xmlns="http://www.w3.org/2000/svg" width="30.001" height="19.504" viewBox="0 0 30.001 19.504">
  <g id="grid" transform="translate(0.001)">
    <g id="Vereinigungsmenge_9" data-name="Vereinigungsmenge 9" transform="translate(-21142 -17695.996)" stroke-linecap="round" stroke-linejoin="round">
      <path d="M 21171.5 17715 L 21163.49609375 17715 L 21163.49609375 17706.99609375 L 21171.5 17706.99609375 L 21171.5 17715 Z M 21161 17715 L 21153 17715 L 21153 17706.99609375 L 21161 17706.99609375 L 21161 17715 Z M 21150.5 17715 L 21142.5 17715 L 21142.5 17706.99609375 L 21150.5 17706.99609375 L 21150.5 17715 Z M 21171.5 17704.5 L 21163.49609375 17704.5 L 21163.49609375 17696.49609375 L 21171.5 17696.49609375 L 21171.5 17704.5 Z M 21161 17704.5 L 21153 17704.5 L 21153 17696.49609375 L 21161 17696.49609375 L 21161 17704.5 Z M 21150.5 17704.5 L 21142.5 17704.5 L 21142.5 17696.49609375 L 21150.5 17696.49609375 L 21150.5 17704.5 Z" stroke="none"/>
      <path d="M 21171 17714.5 L 21171 17707.49609375 L 21163.99609375 17707.49609375 L 21163.99609375 17714.5 L 21171 17714.5 M 21160.5 17714.5 L 21160.5 17707.49609375 L 21153.5 17707.49609375 L 21153.5 17714.5 L 21160.5 17714.5 M 21150 17714.5 L 21150 17707.49609375 L 21143 17707.49609375 L 21143 17714.5 L 21150 17714.5 M 21171 17704 L 21171 17696.99609375 L 21163.99609375 17696.99609375 L 21163.99609375 17704 L 21171 17704 M 21160.5 17704 L 21160.5 17696.99609375 L 21153.5 17696.99609375 L 21153.5 17704 L 21160.5 17704 M 21150 17704 L 21150 17696.99609375 L 21143 17696.99609375 L 21143 17704 L 21150 17704 M 21172 17715.5 L 21162.99609375 17715.5 L 21162.99609375 17706.49609375 L 21172 17706.49609375 L 21172 17715.5 Z M 21161.5 17715.5 L 21152.5 17715.5 L 21152.5 17706.49609375 L 21161.5 17706.49609375 L 21161.5 17715.5 Z M 21151 17715.5 L 21142 17715.5 L 21142 17706.49609375 L 21151 17706.49609375 L 21151 17715.5 Z M 21172 17705 L 21162.99609375 17705 L 21162.99609375 17695.99609375 L 21172 17695.99609375 L 21172 17705 Z M 21161.5 17705 L 21152.5 17705 L 21152.5 17695.99609375 L 21161.5 17695.99609375 L 21161.5 17705 Z M 21151 17705 L 21142 17705 L 21142 17695.99609375 L 21151 17695.99609375 L 21151 17705 Z" stroke="none" fill="#000"/>
    </g>
  </g>
</svg>
