<svg id="group" xmlns="http://www.w3.org/2000/svg" width="43.06" height="25" viewBox="0 0 43.06 25">
  <path id="Vereinigungsmenge_12" data-name="Vereinigungsmenge 12" d="M17.061,25a2.283,2.283,0,0,0,.16-.863V20.879a6.713,6.713,0,0,0-3.636-5.949,6.421,6.421,0,0,1,4.205-1.573h7.488a6.416,6.416,0,0,1,4.185,1.567,6.728,6.728,0,0,0-3.636,5.954v3.257a2.339,2.339,0,0,0,.16.863Zm11.357-.006a.861.861,0,0,1-.866-.858V20.879A4.981,4.981,0,0,1,32.519,15.9h5.573a4.981,4.981,0,0,1,4.968,4.976v3.257a.859.859,0,0,1-.863.858Zm-27.566,0A.855.855,0,0,1,0,24.137V20.879A4.973,4.973,0,0,1,4.968,15.9H10.53A4.981,4.981,0,0,1,15.5,20.879v3.257a.861.861,0,0,1-.863.858ZM30.84,10.252a4.47,4.47,0,1,1,4.466,4.466A4.47,4.47,0,0,1,30.84,10.252Zm-27.563,0a4.471,4.471,0,1,1,4.474,4.466A4.478,4.478,0,0,1,3.277,10.252ZM15.761,5.778a5.769,5.769,0,1,1,5.769,5.775A5.789,5.789,0,0,1,15.761,5.778Z"/>
</svg>
