<svg id="hotel" xmlns="http://www.w3.org/2000/svg" width="34.999" height="26.947" viewBox="0 0 34.999 26.947">
  <path id="Vereinigungsmenge_20" data-name="Vereinigungsmenge 20" d="M32.315,26.947V25.014a3.2,3.2,0,0,0-3.2-3.182H5.889a3.2,3.2,0,0,0-3.2,3.182v1.933H0V17.525c0-.124.015-.243.03-.364a1.656,1.656,0,0,1,.026-.186,1.141,1.141,0,0,0,.024-.168c.017-.08.035-.162.059-.239a.485.485,0,0,1,.026-.095c.023-.091.056-.184.088-.272a.172.172,0,0,1,0-.042,2.337,2.337,0,0,1,.131-.3,3.92,3.92,0,0,1,1.487-1.644l.121-.073.142-.071.2-.091a.581.581,0,0,1,.109-.044,1.766,1.766,0,0,1,.243-.089l.1-.029a1.763,1.763,0,0,1,.262-.068.532.532,0,0,1,.1-.023l.287-.042H3.5a2.52,2.52,0,0,1,.367-.018H31.141c.125,0,.247.018.371.018h.067l.285.042a.5.5,0,0,1,.107.023,1.758,1.758,0,0,1,.26.068l.1.029a1.576,1.576,0,0,1,.239.089.507.507,0,0,1,.109.044l.2.091.14.071.12.073a3.928,3.928,0,0,1,1.49,1.644c.047.095.091.195.13.3a.087.087,0,0,1,0,.042c.032.088.062.18.089.272a.485.485,0,0,1,.026.095,1.87,1.87,0,0,1,.056.239.354.354,0,0,1,.028.168c.005.056.02.115.023.18.012.121.021.246.021.37v9.421ZM0,3.867A3.873,3.873,0,0,1,3.867,0H31.13a3.873,3.873,0,0,1,3.857,3.867V14.548c-.05-.065-.1-.124-.156-.184l-.032-.038c-.09-.1-.175-.2-.269-.29a5.259,5.259,0,0,0-.544-.459l-.121-.091-.213-.13a1.994,1.994,0,0,0-.233-.133l-.184-.1c-.109-.054-.225-.1-.339-.145a.564.564,0,0,0-.115-.044,4.187,4.187,0,0,0-.473-.152v-2.1a3.872,3.872,0,0,0-3.87-3.869h-4.93a3.87,3.87,0,0,0-3.867,3.869v1.963H15.361V10.684a3.873,3.873,0,0,0-3.87-3.869H6.563a3.875,3.875,0,0,0-3.882,3.869v2.108c-.159.044-.319.091-.476.15a.8.8,0,0,0-.112.044c-.115.045-.231.092-.343.149l-.18.095c-.075.038-.157.085-.234.132l-.215.13-.115.092a4.385,4.385,0,0,0-.544.458c-.1.095-.184.192-.273.29l-.032.038c-.054.062-.107.119-.157.186Z"/>
</svg>
