<svg xmlns="http://www.w3.org/2000/svg" width="23.277" height="23.277" viewBox="0 0 23.277 23.277">
  <g id="Komponente_12_99" data-name="Komponente 12 – 99" transform="translate(0.5 0.5)">
    <path id="Vereinigungsmenge_1" data-name="Vereinigungsmenge 1" d="M6.546,22.21a8.176,8.176,0,0,1-2.7-.518A5.46,5.46,0,0,1,1.87,20.408,5.461,5.461,0,0,1,.585,18.435a8.176,8.176,0,0,1-.518-2.7C.013,14.543,0,14.164,0,11.139s.013-3.4.067-4.592a8.176,8.176,0,0,1,.518-2.7A5.46,5.46,0,0,1,1.87,1.87,5.46,5.46,0,0,1,3.842.585a8.176,8.176,0,0,1,2.7-.518C7.734.013,8.114,0,11.139,0s3.4.013,4.592.067a8.176,8.176,0,0,1,2.7.518A5.46,5.46,0,0,1,20.408,1.87a5.46,5.46,0,0,1,1.285,1.973,8.176,8.176,0,0,1,.518,2.7c.054,1.188.067,1.567.067,4.592s-.013,3.4-.067,4.592a8.176,8.176,0,0,1-.518,2.7,5.7,5.7,0,0,1-3.258,3.258,8.176,8.176,0,0,1-2.7.518c-1.188.054-1.567.067-4.592.067S7.734,22.264,6.546,22.21ZM6.638,2.072a6.165,6.165,0,0,0-2.068.383,3.452,3.452,0,0,0-1.281.833,3.452,3.452,0,0,0-.833,1.281,6.165,6.165,0,0,0-.383,2.068c-.054,1.175-.065,1.527-.065,4.5s.011,3.326.065,4.5a6.165,6.165,0,0,0,.383,2.068,3.452,3.452,0,0,0,.833,1.281,3.452,3.452,0,0,0,1.281.833,6.165,6.165,0,0,0,2.068.384c1.174.054,1.527.065,4.5.065s3.327-.011,4.5-.065a6.166,6.166,0,0,0,2.068-.384,3.689,3.689,0,0,0,2.114-2.114,6.166,6.166,0,0,0,.384-2.068c.054-1.175.065-1.527.065-4.5s-.011-3.326-.065-4.5a6.165,6.165,0,0,0-.384-2.068,3.452,3.452,0,0,0-.833-1.281,3.452,3.452,0,0,0-1.281-.833,6.165,6.165,0,0,0-2.068-.383c-1.175-.054-1.527-.065-4.5-.065S7.812,2.018,6.638,2.072ZM5.419,11.139a5.72,5.72,0,1,1,5.72,5.72A5.72,5.72,0,0,1,5.419,11.139Zm2.007,0a3.713,3.713,0,1,0,3.713-3.713A3.713,3.713,0,0,0,7.426,11.139Zm8.322-5.946a1.337,1.337,0,1,1,1.337,1.337A1.337,1.337,0,0,1,15.748,5.193Z" fill="#000000" stroke="rgba(0,0,0,0)" stroke-miterlimit="10" stroke-width="1"/>
  </g>
</svg>
