<svg id="info" xmlns="http://www.w3.org/2000/svg" width="30" height="30" viewBox="0 0 30 30">
  <path id="Pfad_282" data-name="Pfad 282" d="M40,25A15,15,0,1,1,25,10,15,15,0,0,1,40,25ZM28.889,16.772a2.328,2.328,0,1,1-2.328-2.328A2.328,2.328,0,0,1,28.889,16.772Zm-6.983,5.576,5.083-.742a.369.369,0,0,1,.408.469l-3,10.363c-.13.694,1.587-.269,2.768-1a.336.336,0,0,1,.49.441c-.929,1.63-2.883,4.35-5.23,3.52s-1.768-2.737-1.053-5.024c.11-.356.224-.719.33-1.091.262-.919.595-1.84.888-2.655.589-1.632,1.02-2.828.409-2.675a1.14,1.14,0,0,1-1.367-1.383.317.317,0,0,1,.271-.22Z" transform="translate(-10 -10)" fill-rule="evenodd"/>
</svg>
