<svg xmlns="http://www.w3.org/2000/svg" width="30" height="21.429" viewBox="0 0 30 21.429">
  <g id="membership" transform="translate(0 0.001)">
    <path id="Vereinigungsmenge_13" data-name="Vereinigungsmenge 13" d="M21145.211,17717.426a3.223,3.223,0,0,1-3.211-3.207v-15a3.228,3.228,0,0,1,3.211-3.219h23.578a3.228,3.228,0,0,1,3.211,3.219v15a3.223,3.223,0,0,1-3.211,3.207Zm9.027-5.262a1.022,1.022,0,0,0,.379.08,1.1,1.1,0,0,0,.637-.215,1.06,1.06,0,0,0,.441-.918l-.152-2.775,1.754-2.158a1.1,1.1,0,0,0,.188-1.006,1.075,1.075,0,0,0-.742-.707l-2.691-.717-1.512-2.334a1.12,1.12,0,0,0-1.8,0l-1.5,2.334-2.7.717a1.057,1.057,0,0,0-.734.707,1.073,1.073,0,0,0,.176,1.006l1.766,2.158-.152,2.775a1.068,1.068,0,0,0,1.453,1.053l2.594-.988Zm5.441-3.3a1.073,1.073,0,0,0,1.07,1.068h3.211a1.07,1.07,0,1,0,0-2.141h-3.211A1.074,1.074,0,0,0,21159.68,17708.859Zm0-4.291a1.078,1.078,0,0,0,1.07,1.08h6.43a1.074,1.074,0,0,0,0-2.148h-6.43A1.073,1.073,0,0,0,21159.68,17704.568Zm-7.652,4.459a1.045,1.045,0,0,0-.773,0l-1.434.549.074-1.539a1.025,1.025,0,0,0-.234-.732l-.965-1.2,1.488-.4a1.083,1.083,0,0,0,.621-.451l.836-1.295.836,1.295a1.1,1.1,0,0,0,.621.451l1.488.4-.965,1.2a1.025,1.025,0,0,0-.234.732l.078,1.539Z" transform="translate(-21142 -17695.998)"/>
  </g>
</svg>
