<svg id="nav" xmlns="http://www.w3.org/2000/svg" width="31.823" height="30" viewBox="0 0 31.823 30">
  <path id="Linie_1" data-name="Linie 1" d="M28.641,1.5H.183A1.6,1.6,0,0,1-1.5,0,1.6,1.6,0,0,1,.183-1.5H28.641A1.6,1.6,0,0,1,30.323,0,1.6,1.6,0,0,1,28.641,1.5Z" transform="translate(1.5 1.5)"/>
  <path id="Linie_2" data-name="Linie 2" d="M28.641,1.5H.183A1.6,1.6,0,0,1-1.5,0,1.6,1.6,0,0,1,.183-1.5H28.641A1.6,1.6,0,0,1,30.323,0,1.6,1.6,0,0,1,28.641,1.5Z" transform="translate(1.5 15)"/>
  <path id="Linie_3" data-name="Linie 3" d="M28.641,1.5H.183A1.6,1.6,0,0,1-1.5,0,1.6,1.6,0,0,1,.183-1.5H28.641A1.6,1.6,0,0,1,30.323,0,1.6,1.6,0,0,1,28.641,1.5Z" transform="translate(1.5 28.5)"/>
</svg>
