<svg id="pdf" xmlns="http://www.w3.org/2000/svg" width="32.402" height="30.242" viewBox="0 0 32.402 30.242">
  <path id="Pfad_475" data-name="Pfad 475" d="M15.041,18.2v2.16a1.081,1.081,0,0,1-1.08,1.08v-4.32A1.081,1.081,0,0,1,15.041,18.2ZM7.48,17.121v2.16H8.562v-2.16H7.48Zm19.441-3.24v10.8a3.244,3.244,0,0,1-3.24,3.24H4.24A3.244,3.244,0,0,1,1,24.682v-10.8a3.244,3.244,0,0,1,3.24-3.24H23.682A3.244,3.244,0,0,1,26.922,13.881Zm-16.2,3.24a2.162,2.162,0,0,0-2.16-2.16H6.4a1.08,1.08,0,0,0-1.08,1.08v6.48a1.08,1.08,0,1,0,2.16,0v-1.08h1.08a2.162,2.162,0,0,0,2.16-2.16ZM17.2,18.2a3.244,3.244,0,0,0-3.24-3.24h-1.08a1.08,1.08,0,0,0-1.08,1.08v6.48a1.08,1.08,0,0,0,1.08,1.08h1.08a3.244,3.244,0,0,0,3.24-3.24Zm3.24,0v-1.08h1.08a1.08,1.08,0,0,0,0-2.16h-2.16a1.08,1.08,0,0,0-1.08,1.08v6.48a1.08,1.08,0,1,0,2.16,0v-2.16h1.08a1.08,1.08,0,0,0,0-2.16Zm11.7-11.434-3.5-3.5A4.454,4.454,0,0,0,28,2.745V7.4h4.653a4.27,4.27,0,0,0-.517-.633Zm1.24,2.793H26.922c-.016,0-.029-.009-.044-.009a5.381,5.381,0,0,1,2.2,4.329v10.8a5.407,5.407,0,0,1-5.4,5.4H12a3.236,3.236,0,0,0,3.041,2.16H30.162A3.244,3.244,0,0,0,33.4,29V9.822C33.4,9.733,33.382,9.648,33.376,9.561ZM23.682,8.48a5.334,5.334,0,0,1,2.334.552,1.049,1.049,0,0,1-.174-.552V2.026C25.753,2.021,25.669,2,25.579,2H15.041A3.244,3.244,0,0,0,11.8,5.24V8.48Z" transform="translate(-1 -2)"/>
</svg>
