<svg id="routePlan" xmlns="http://www.w3.org/2000/svg" width="35.894" height="38.285" viewBox="0 0 35.894 38.285">
  <path id="Pfad_688" data-name="Pfad 688" d="M17.441,36.09a1.148,1.148,0,0,1-1.167-.984,3.085,3.085,0,0,1-.023-.428A7.161,7.161,0,0,1,23.429,27.5h7.717a1.2,1.2,0,0,1,0,2.393H23.429a4.767,4.767,0,0,0-4.786,4.786,1.245,1.245,0,0,1-1.02,1.4,1.41,1.41,0,0,1-.182.013Z" transform="translate(-12.662 -17.926)"/>
  <path id="Pfad_689" data-name="Pfad 689" d="M54.013,69.984H43.6a1.2,1.2,0,0,1,0-2.393H54.013a4.786,4.786,0,1,0,0-9.572h-9.5a1.2,1.2,0,0,1,0-2.393h9.5a7.179,7.179,0,0,1,0,14.358Z" transform="translate(-27.689 -34.089)"/>
  <path id="Pfad_690" data-name="Pfad 690" d="M65.616,5a7.187,7.187,0,0,0-7.179,7.179c0,5.136,5.039,10.768,7.179,10.768s7.179-5.632,7.179-10.768A7.187,7.187,0,0,0,65.616,5Zm0,9.572a2.393,2.393,0,1,1,2.393-2.393A2.393,2.393,0,0,1,65.616,14.572Z" transform="translate(-36.901 -5)"/>
  <path id="Pfad_691" data-name="Pfad 691" d="M14.992,52.812a7.187,7.187,0,0,0-7.179,7.179c0,5.136,5.039,10.768,7.179,10.768s7.179-5.632,7.179-10.768A7.187,7.187,0,0,0,14.992,52.812Zm0,9.572a2.393,2.393,0,1,1,2.393-2.393A2.393,2.393,0,0,1,14.992,62.384Z" transform="translate(-7.813 -32.474)"/>
</svg>
