<svg id="ticketHotel" xmlns="http://www.w3.org/2000/svg" width="41.173" height="20.002" viewBox="0 0 41.173 20.002">
  <path id="Differenzmenge_1" data-name="Differenzmenge 1" d="M40.168,20H.994a1,1,0,0,1-1-1V13a1,1,0,0,1,1-1,2,2,0,0,0,0-4,1,1,0,0,1-1-1V1a1,1,0,0,1,1-1H40.168a1,1,0,0,1,1,1V7a1,1,0,0,1-1,1,2,2,0,0,0,0,4,1,1,0,0,1,1,1v6A1,1,0,0,1,40.168,20ZM8.655,13.721a1,1,0,0,0-1,1v2.965a1,1,0,0,0,1,1h.482a1,1,0,0,0,1-1V14.721a1,1,0,0,0-1-1Zm11.313-.285H29.5a1.3,1.3,0,0,1,1.312,1.279v.778h1.1V11.7c0-.046,0-.094-.007-.148,0-.014,0-.027-.005-.04s0-.023,0-.034a.131.131,0,0,0-.012-.066.725.725,0,0,0-.023-.1.148.148,0,0,0-.01-.037c-.01-.035-.022-.071-.037-.111a.049.049,0,0,0,0-.016,1.16,1.16,0,0,0-.053-.119,1.571,1.571,0,0,0-.612-.66l-.05-.031-.057-.028-.081-.038a.269.269,0,0,0-.045-.017c-.029-.012-.06-.023-.1-.036l-.041-.012a.6.6,0,0,0-.108-.026.209.209,0,0,0-.042-.011l-.118-.016h-.027c-.026,0-.051,0-.076,0s-.05,0-.075,0h-11.2a1.072,1.072,0,0,0-.152.007H18.96l-.118.016a.226.226,0,0,0-.042.011.655.655,0,0,0-.108.026l-.041.012c-.039.013-.07.024-.1.036a.269.269,0,0,0-.045.017l-.08.038-.058.028-.049.031a1.571,1.571,0,0,0-.612.66c-.018.038-.038.078-.053.119a.049.049,0,0,0,0,.016c-.015.039-.027.075-.037.111a.2.2,0,0,0-.01.037.727.727,0,0,0-.023.1.213.213,0,0,1-.006.044c0,.007,0,.014,0,.021l0,.016c0,.019-.007.04-.008.06-.007.052-.011.1-.013.146v3.789h1.105v-.778A1.3,1.3,0,0,1,19.968,13.436ZM8.655,7.515a1,1,0,0,0-1,1V11.48a1,1,0,0,0,1,1h.482a1,1,0,0,0,1-1V8.516a1,1,0,0,0-1-1ZM19.139,4.66a1.577,1.577,0,0,0-1.589,1.555v4.3l.041-.048.024-.027.014-.015c.035-.039.072-.079.112-.116a1.8,1.8,0,0,1,.222-.184l.049-.038.087-.052c.033-.02.066-.039.1-.054l.076-.039c.043-.02.09-.039.14-.059l.047-.018c.071-.025.135-.045.194-.06V8.955A1.578,1.578,0,0,1,20.244,7.4h2.025a1.577,1.577,0,0,1,1.589,1.555v.789h1.755V8.955A1.576,1.576,0,0,1,27.2,7.4h2.025a1.579,1.579,0,0,1,1.589,1.555V9.8c.061.015.123.034.194.059.015.005.031.012.047.019.049.018.1.038.139.059l.075.039c.029.013.06.031.089.049l.008,0,.087.053.048.037a1.825,1.825,0,0,1,.224.184c.027.026.052.053.077.08l.034.036.013.016.01.01c.018.02.037.04.055.063V6.215A1.577,1.577,0,0,0,30.332,4.66ZM8.9,1.31A1.243,1.243,0,0,0,7.655,2.551V5.033a1.241,1.241,0,0,0,2.482,0V2.551A1.243,1.243,0,0,0,8.9,1.31Z" transform="translate(0.005 0)"/>
</svg>
