<?xml version="1.0" encoding="UTF-8"?>
<svg id="Ebene_2" data-name="Ebene 2" xmlns="http://www.w3.org/2000/svg" viewBox="0 0 100 98.66">
  <g id="Ebene_1-2" data-name="Ebene 1">
    <path d="M24.64,74.56c-4.97,1.6-9.52,3.63-13.38,6.12v.03l-.14.09C4.43,72.53.31,62.12,0,50.77h20.93c.11,8.6,1.46,16.72,3.72,23.79h0ZM24.64,24.13c-5-1.6-9.55-3.63-13.38-6.12l-.17-.12C4.4,26.16.31,36.54,0,47.91h20.93c.11-8.63,1.46-16.73,3.72-23.78h0ZM25.56,77.24c-4.66,1.49-8.95,3.43-12.55,5.75,7.41,8.12,17.44,13.81,28.76,15.67-6.75-3.52-12.47-11.21-16.21-21.41h0ZM41.77,0c-11.35,1.86-21.38,7.55-28.78,15.69,3.63,2.32,7.89,4.26,12.58,5.75C29.3,11.23,35.02,3.52,41.77,0h0ZM28.21,22.21c6.26,1.71,13.18,2.69,20.35,2.8V.86c-8.46.86-15.9,9.09-20.35,21.35h0ZM23.76,47.91h24.81v-20.04c-7.46-.11-14.69-1.14-21.24-2.95-2.14,6.77-3.43,14.6-3.57,22.98h0ZM27.33,73.76c6.55-1.8,13.78-2.83,21.24-2.95v-20.04h-24.81c.14,8.35,1.43,16.18,3.57,22.98h0ZM48.57,97.8v-24.12c-7.18.11-14.09,1.09-20.35,2.8,4.49,12.23,11.9,20.47,20.35,21.32h0ZM71.79,76.47c-6.26-1.71-13.18-2.69-20.35-2.8v24.13c8.46-.86,15.9-9.09,20.35-21.33h0ZM51.43.86v24.16c7.18-.11,14.09-1.09,20.35-2.8C67.32,9.95,59.89,1.72,51.43.86h0ZM76.24,50.77h-24.81v20.04c7.46.11,14.7,1.14,21.24,2.95,2.14-6.8,3.43-14.64,3.57-22.98h0ZM72.67,24.93c-6.55,1.8-13.78,2.83-21.24,2.95v20.04h24.81c-.14-8.38-1.4-16.21-3.57-22.98h0ZM58.23,98.66c11.32-1.86,21.35-7.55,28.76-15.67-3.6-2.32-7.89-4.26-12.55-5.75-3.74,10.21-9.46,17.9-16.21,21.41h0ZM74.44,21.44c4.69-1.49,8.95-3.43,12.58-5.75C79.62,7.55,69.58,1.86,58.23,0c6.75,3.52,12.47,11.23,16.21,21.44h0ZM75.36,74.56c4.97,1.57,9.52,3.63,13.35,6.12l.17.11c6.69-8.26,10.81-18.67,11.12-30.02h-20.9c-.14,8.6-1.46,16.72-3.75,23.78h0ZM79.1,47.91h20.9c-.31-11.38-4.4-21.75-11.09-30.02l-.14.09s-.03.03-.03.03c-3.83,2.49-8.38,4.52-13.35,6.12,2.26,7.06,3.58,15.15,3.72,23.78h0Z"/>
  </g>
</svg>