<svg id="Komponente_14_99" data-name="Komponente 14 – 99" xmlns="http://www.w3.org/2000/svg" width="26.197" height="18.457" viewBox="0 0 26.197 18.457">
  <path id="Pfad_35" data-name="Pfad 35" d="M33.65,36.882a3.292,3.292,0,0,0-2.316-2.331C29.291,34,21.1,34,21.1,34s-8.192,0-10.235.551a3.292,3.292,0,0,0-2.316,2.331A34.527,34.527,0,0,0,8,43.229a34.527,34.527,0,0,0,.547,6.346,3.292,3.292,0,0,0,2.316,2.331c2.043.551,10.235.551,10.235.551s8.192,0,10.235-.551a3.292,3.292,0,0,0,2.316-2.331,34.527,34.527,0,0,0,.547-6.346A34.527,34.527,0,0,0,33.65,36.882ZM18.419,47.124v-7.79l6.847,3.9Z" transform="translate(-8 -34)" fill="#000000"/>
</svg>
