<?xml version="1.0" encoding="UTF-8"?>
<svg id="Ebene_2" data-name="Ebene 2" xmlns="http://www.w3.org/2000/svg" width="245.91" height="34.63" viewBox="0 0 245.91 34.63">
  <g id="Ebene_1-2" data-name="Ebene 1">
    <g>
      <path d="M.01,7.77h2.96v2.77c2.28-1.94,4.64-3.38,7.9-3.38,4.33,0,5.51,2.09,6.31,3.53,3.12-2.62,5.17-3.53,8.09-3.53,1.82,0,7.29.38,7.29,6.12v14.36h-3.08v-13.22c0-1.22,0-4.64-4.37-4.64-3.46,0-6,2.28-7.29,3.5v14.36h-3.08v-13.22c0-1.22,0-4.64-4.29-4.64-3.53,0-6.08,2.28-7.37,3.5v14.36H0V7.77h.01Z" fill="#706b6a" stroke-width="0"/>
      <path d="M58.53,23.49c-2.05,2.17-4.03,4.75-10.79,4.75s-11.25-4.56-11.25-10.64,4.75-10.45,10.87-10.45,11.89,3.3,11.74,11.17h-19.53c.3,3.72,3.3,7.29,8.47,7.29s6.84-2.32,8.09-3.88l2.39,1.75h.01ZM55.76,15.71c-.61-3.27-3.42-5.93-8.13-5.93s-7.07,2.28-7.94,5.93h16.07Z" fill="#706b6a" stroke-width="0"/>
      <path d="M76.28,10.39h-7.9v12.01c0,2.17.95,3.23,4.07,3.23,1.48,0,2.7-.27,4.37-.61v2.66c-2.2.34-3.76.57-5.01.57-6.5,0-6.5-3.95-6.5-5.55v-12.31h-4.22v-2.62h4.22V1.16h3.08v6.61h7.9v2.62h-.01Z" fill="#706b6a" stroke-width="0"/>
      <path d="M100.75,23.49c-2.05,2.17-4.03,4.75-10.79,4.75s-11.25-4.56-11.25-10.64,4.75-10.45,10.87-10.45,11.89,3.3,11.74,11.17h-19.53c.3,3.72,3.3,7.29,8.47,7.29s6.84-2.32,8.09-3.88l2.39,1.75h0ZM97.97,15.71c-.61-3.27-3.42-5.93-8.13-5.93s-7.07,2.28-7.94,5.93h16.07Z" fill="#706b6a" stroke-width="0"/>
      <path d="M104.05,17.34c0-5.66,4.48-10.18,11.47-10.18s11.44,4.52,11.44,10.18c0,7.03-4.67,10.91-11.44,10.91s-11.47-3.88-11.47-10.91ZM123.89,17.72c0-3.61-2.36-7.94-8.36-7.94s-8.4,4.33-8.4,7.94c0,4.75,3.19,7.9,8.4,7.9s8.36-3.15,8.36-7.9Z" fill="#706b6a" stroke-width="0"/>
      <path d="M152.27,9.82c-2.28,0-3.12.49-3.72.84.49.76,1.1,1.71,1.1,3.84,0,2.51-2.24,6.8-9.27,6.8-2.93,0-3.91-.27-5.74-.95-.95.34-1.41.87-1.41,1.63,0,1.33.76,1.56,7.75,1.63,7.48.08,11.4.65,11.4,4.9,0,5.32-7.49,6.12-12.8,6.12-4.1,0-10.64-.76-10.64-5.58,0-1.44.76-2.74,3.38-3.65-1.1-.61-2.17-1.18-2.17-2.77,0-1.82,1.71-2.85,2.74-3.46-1.63-1.48-2.7-2.74-2.7-5.02,0-5.05,4.56-6.99,9.5-6.99,3.38,0,5.24.46,7.45,1.86,1.63-1.33,2.47-2.01,5.13-2.01v2.81ZM149.42,28.81c0-1.75-1.41-2.13-6.99-2.32-2.43-.08-4.83-.15-7.26-.27-2.09.76-3.27,1.52-3.27,2.85,0,2.32,4.07,3.04,7.64,3.04,5.17,0,9.88-.8,9.88-3.31h0ZM133.16,14.19c0,3.91,4.64,4.6,6.8,4.6,3,0,6.73-.99,6.73-4.6,0-3.84-3.95-4.52-6.8-4.52s-6.72.84-6.72,4.52h0Z" fill="#3a5cab" stroke-width="0"/>
      <path d="M176.02,27.64h-3.08v-2.89c-2.09,1.82-4.83,3.5-8.36,3.5-2.47,0-8.21-.57-8.21-7.37V7.77h3.08v12.5c-.08,4.71,3.34,5.36,5.51,5.36,3.38,0,6.19-2.09,7.98-3.99V7.77h3.08v19.87h0Z" fill="#3a5cab" stroke-width="0"/>
      <path d="M201.22,24.56c0,1.18.15,2.01.34,3.08h-3.08c-.15-.61-.38-1.6-.38-2.39-2.89,1.86-6.12,3-9.92,3-3.27,0-8.09-.91-8.09-6.04,0-6.88,10.3-7.14,18.05-8.05v-.76c0-2.7-3.23-3.72-6.38-3.72-5.28,0-7.14,2.2-8.13,3.34l-2.32-1.6c1.14-1.41,3.31-4.25,10.22-4.25,4.52,0,9.69,1.33,9.69,6.42v10.98h0ZM198.14,16.66c-9.04.87-15.12,1.71-15.12,5.55,0,3.12,3.5,3.53,5.02,3.53,4.29,0,8.13-2.05,10.11-3.12v-5.96h-.01Z" fill="#3a5cab" stroke-width="0"/>
      <path d="M207.07,7.77h3.08v4.14c1.79-2.01,4.29-4.75,8.28-4.75.68,0,1.25.04,1.82.15v3.08c-.38-.04-1.14-.27-2.47-.27-4.37,0-7.52,5.05-7.64,5.62v11.89h-3.08V7.76h.01Z" fill="#3a5cab" stroke-width="0"/>
      <path d="M245.68,0v23.9c0,.53.19,3.12.23,3.72h-2.77l-.38-3.12c-3,2.43-5.01,3.72-9.57,3.72-7.67,0-10.87-5.85-10.87-10.37s2.89-10.71,11.4-10.71c4.1,0,6.15,1.33,8.89,3.34V0h3.08-.01ZM242.6,13.69c-1.82-1.9-4.41-3.91-8.7-3.91s-8.51,2.13-8.51,8.17c0,4.1,3.19,7.67,8.59,7.67,3.31,0,6.72-2.17,8.62-4.22v-7.71h0Z" fill="#3a5cab" stroke-width="0"/>
    </g>
  </g>
</svg>