<?xml version="1.0" encoding="UTF-8"?>
<svg id="Ebene_2" data-name="Ebene 2" xmlns="http://www.w3.org/2000/svg" width="203" height="203" xmlns:xlink="http://www.w3.org/1999/xlink" viewBox="0 0 203 203">
  <defs>
    <linearGradient id="Unbenannter_Verlauf" data-name="Unbenannter Verlauf" x1="32.73" y1="88.25" x2="171.3" y2="226.82" gradientTransform="translate(0 258.52) scale(1 -1)" gradientUnits="userSpaceOnUse">
      <stop offset="0" stop-color="#aef1f2"/>
      <stop offset="1" stop-color="#223d9c"/>
    </linearGradient>
  </defs>
  <g id="Ebene_1-2" data-name="Ebene 1">
    <g>
      <circle cx="101.5" cy="101.5" r="101.5" fill="url(#Unbenannter_Verlauf)" stroke-width="0"/>
      <g>
        <path d="M101.55,36.18h-.1c-18.86.01-33.56,17.01-33.56,36.24v65.15c0,6.44,3.43,6.12,5.56,6.22,3.42,9.03,12.31,22.72,28.13,23.04h.06c15.7,0,24.5-14.02,27.92-23.04,2.09,0,5.56.81,5.56-6.22v-65.15c0-19.23-14.47-36.23-33.56-36.23h0ZM114.2,72.71c-10.38,4.89-14.84,17.28-9.94,27.66,2.06,4.37,5.57,7.89,9.94,9.95-11.56-2.98-19.73-10.27-19.73-18.8s8.17-15.82,19.73-18.8h0ZM101.02,71.28c-11.18,4.07-16.94,16.42-12.88,27.6,2.18,5.99,6.89,10.7,12.88,12.88-13.73-3.16-23.45-11.05-23.45-20.24s9.72-17.08,23.45-20.24ZM101.85,162.01c-12.01.03-20.83-10.71-21.64-18.5-.36-3.49,10.72-3.63,21.28-3.63s22.34.58,22,3.69c-1,9.09-10.9,18.41-21.64,18.45h0ZM118.39,101.52c1.7,2.91,4.12,5.33,7.03,7.03-9.42-2.63-16.08-9.22-16.08-16.92s6.66-14.24,16.08-16.93c-9.35,5.47-12.49,17.47-7.03,26.82Z" fill="#fff" stroke-width="0"/>
        <path d="M109.81,154.47h-15.72c-.83,0-1.5-.67-1.5-1.5s.67-1.5,1.5-1.5h15.72c.83,0,1.5.67,1.5,1.5s-.67,1.5-1.5,1.5Z" fill="#fff" stroke-width="0"/>
        <path d="M103.16,147.61h-2.43c-.83,0-1.5-.67-1.5-1.5s.67-1.5,1.5-1.5h2.43c.83,0,1.5.67,1.5,1.5s-.67,1.5-1.5,1.5Z" fill="#fff" stroke-width="0"/>
      </g>
    </g>
  </g>
</svg>