<?xml version="1.0" encoding="UTF-8"?>
<svg id="Ebene_2" data-name="Ebene 2" xmlns="http://www.w3.org/2000/svg" width="142.44" height="57.57" viewBox="0 0 142.44 57.57">
  <g id="Ebene_1-2" data-name="Ebene 1">
    <g>
      <path d="M115.2,31.73h17.61v-5.62h-10.88v-2.22h10.01v-4.94h-10.01v-2.08h10.74v-5.62h-17.46v20.48ZM114.27,31.73l-4.77-6.96c2.49-1.2,4.04-3.28,4.04-6.26v-.06c0-2.11-.64-3.63-1.87-4.86-1.43-1.43-3.74-2.34-7.37-2.34h-10.01v20.48h6.85v-5.85h1.46l3.86,5.85h7.81ZM106.72,19c0,1.26-.99,1.99-2.63,1.99h-2.95v-4.01h2.98c1.58,0,2.6.64,2.6,1.96v.06ZM86.01,31.73h7.43l-8.63-20.62h-6.79l-8.63,20.62h7.31l1.05-2.75h7.17l1.08,2.75ZM83.23,24.12h-3.74l1.87-4.97,1.87,4.97ZM44,31.73h17.61v-5.62h-10.88v-2.22h10.01v-4.94h-10.01v-2.08h10.74v-5.62h-17.46v20.48ZM36.13,31.88l6.7-20.62h-7.05l-2.9,9.83-3.31-9.89h-5.91l-3.31,9.89-2.88-9.79,4.22-2.7-5.66-1.97-1.86-6.62-2.91,4.95L0,1l8.65,8.43L1.6,21.49l9.95-6.39,5.45,16.77h5.97l3.6-10.18,3.6,10.18h5.97Z" fill="#181716" stroke-width="0"/>
      <polygon points="132.81 51.28 132.81 36.65 125.97 36.65 125.97 57.13 142.44 57.13 142.44 51.28 132.81 51.28" fill="#181716" stroke-width="0"/>
      <path d="M109.71,36.51l-8.63,20.62h7.31l1.05-2.75h7.17l1.08,2.75h7.43l-8.63-20.62h-6.79ZM111.17,49.52l1.87-4.97,1.87,4.97h-3.74Z" fill="#181716" stroke-width="0"/>
      <path d="M95.96,48.85c-.85,1.52-1.93,2.57-3.86,2.57-2.25,0-3.83-1.87-3.83-4.53v-.06c0-2.46,1.52-4.48,3.83-4.48,1.87,0,2.96,1.02,3.72,2.49l5.65-3.3c-1.73-3.13-4.77-5.32-9.27-5.32-6.11,0-10.88,4.56-10.88,10.68v.06c0,6.35,4.95,10.62,10.62,10.62,5.09,0,7.96-2.49,9.68-5.53l-5.65-3.19Z" fill="#181716" stroke-width="0"/>
      <rect x="72.52" y="36.65" width="6.85" height="20.48" fill="#181716" stroke-width="0"/>
      <path d="M62.14,43.91c-2.16-.41-2.72-.76-2.72-1.32v-.06c0-.5.47-.85,1.49-.85,1.9,0,4.21.61,6.14,2.02l3.34-4.62c-2.37-1.87-5.3-2.81-9.24-2.81-5.65,0-8.69,3.01-8.69,6.9v.06c0,4.33,4.04,5.65,8.63,6.58,2.19.44,2.84.76,2.84,1.35v.06c0,.56-.53.88-1.76.88-2.4,0-4.94-.7-7.17-2.4l-3.66,4.36c2.6,2.28,6.35,3.45,10.5,3.45,5.5,0,9.04-2.63,9.04-6.93v-.06c0-4.12-3.51-5.65-8.75-6.61" fill="#181716" stroke-width="0"/>
      <path d="M43.92,48c0,2.49-1.32,3.48-3.16,3.48s-3.16-1.08-3.16-3.63v-11.2h-6.96v11.29c0,6.79,3.95,9.6,10.06,9.6s10.18-2.75,10.18-9.74v-11.14h-6.96v11.35Z" fill="#181716" stroke-width="0"/>
      <polygon points="16.94 43.85 12.56 36.65 5.42 36.65 5.42 57.13 12.12 57.13 12.12 46.98 16.83 54.26 16.94 54.26 21.66 46.98 21.66 57.13 28.47 57.13 28.47 36.65 21.33 36.65 16.94 43.85" fill="#181716" stroke-width="0"/>
    </g>
  </g>
</svg>