<svg xmlns="http://www.w3.org/2000/svg" width="32.995" height="33" viewBox="0 0 32.995 33">
  <defs>
    <style>
      .cls-1 {
        fill: none;
        stroke: #797979;
        stroke-width: 2px;
      }

      .cls-2 {
        fill: #797979;
      }
    </style>
  </defs>
  <g id="Gruppe_160" data-name="Gruppe 160" transform="translate(-399.323 -267.808)">
    <path id="Pfad_89" data-name="Pfad 89" class="cls-1" d="M415.82,299.808a15.5,15.5,0,1,0-15.5-15.5A15.5,15.5,0,0,0,415.82,299.808Z" transform="translate(0 0)"/>
    <g id="Gruppe_1051" data-name="Gruppe 1051">
      <path id="Pfad_90" data-name="Pfad 90" class="cls-2" d="M417.235,287.39l-1.042-2.239a5.7,5.7,0,0,1-3.392,1.221,3.581,3.581,0,0,1-2.727-1.11,4.072,4.072,0,0,1-.975-1.953h4.234l.776-1.615h-5.187v-1.578h5.631l.776-1.615H409.1a4.1,4.1,0,0,1,.975-2.019,3.575,3.575,0,0,1,2.727-1.11,5.11,5.11,0,0,1,3.392,1.221l1.042-2.239a6.847,6.847,0,0,0-4.434-1.483,6.333,6.333,0,0,0-4.611,1.816,6.87,6.87,0,0,0-1.906,3.815h-1.707v1.615h1.552c0,.244-.022.512-.022.756,0,.266,0,.554.022.822h-1.552v1.615h1.729a6.805,6.805,0,0,0,1.884,3.748,6.333,6.333,0,0,0,4.611,1.816,6.857,6.857,0,0,0,4.434-1.483" transform="translate(3.604 3.445)"/>
    </g>
  </g>
</svg>
