<svg id="contest" xmlns="http://www.w3.org/2000/svg" width="41.202" height="33.838" viewBox="0 0 41.202 33.838">
  <path id="Pfad_70" data-name="Pfad 70" d="M22.17,16.279l-.618,1.911,1.625-1.182a.71.71,0,0,1,.835,0l1.625,1.182-.621-1.912a.71.71,0,0,1,.258-.794L26.9,14.3h-2.01a.71.71,0,0,1-.675-.491L23.6,11.9l-.621,1.911a.71.71,0,0,1-.675.491h-2.01l1.626,1.181A.71.71,0,0,1,22.17,16.279Zm6.637,12.54v3.366h1.66a.71.71,0,0,1,.706.634l.639,4.018H15.366l.639-4.018a.71.71,0,0,1,.706-.634h2.407V29.15a12.106,12.106,0,0,1-7.375-8.925,7.611,7.611,0,0,1-5.177-2.353C2.731,13.883,2.985,6.315,3,6a.71.71,0,0,1,.71-.682h7.811V3.71a.71.71,0,0,1,.71-.71H34.952a.71.71,0,0,1,.71.71v1.6h7.811a.71.71,0,0,1,.71.682c.013.32.266,7.888-3.568,11.877a7.606,7.606,0,0,1-5.166,2.352A12.1,12.1,0,0,1,28.807,28.82ZM35.662,6.733v.852c0,.013.008.025.008.038V17.945c0,.284-.023.564-.043.844a6.2,6.2,0,0,0,3.96-1.9c2.8-2.905,3.144-8.266,3.176-10.158ZM11.563,18.79c-.019-.28-.043-.56-.043-.845V6.733h-7.1c.033,1.892.382,7.253,3.178,10.158a6.2,6.2,0,0,0,3.968,1.9Zm6.123-4.622,2.976,2.162-1.136,3.5a.71.71,0,0,0,1.093.794L23.6,18.462l2.977,2.163a.71.71,0,0,0,1.093-.794l-1.136-3.5,2.976-2.162a.71.71,0,0,0-.418-1.285H25.407l-1.136-3.5a.71.71,0,0,0-1.349,0l-1.136,3.5H18.1a.71.71,0,0,0-.417,1.285Zm9.7,15.232a11.825,11.825,0,0,1-6.847.213v2.572h6.847Z" transform="translate(-2.99 -3)"/>
</svg>
