<svg id="countries" xmlns="http://www.w3.org/2000/svg" width="39.7" height="39.66" viewBox="0 0 39.7 39.66">
  <g id="_1" data-name="1">
    <path id="Pfad_461" data-name="Pfad 461" d="M43.766,38.781A19.858,19.858,0,0,1,9.569,18.83l2.536,2.03.816,4.482,7.312,3.4A27.387,27.387,0,0,1,18.866,35.7a2.855,2.855,0,0,0,.039,2.315c.983,2.133,4.26,3.312,4.634,3.44l.668.231,3.042-7.926,3.278-7.337-6.31-4.172-4.629-3.907,6.079-1.287-.56-4.767,5.636-4.4h0A19.927,19.927,0,0,1,44.98,18.142l-2.762,4.128L37.127,20.3l-5.405,1.15,2.511,6.993L39.466,30.8ZM13.456,20.053l.776,4.27,7.538,3.5-.029.491a29.734,29.734,0,0,1-1.514,7.936,1.351,1.351,0,0,0,0,1.145c.491,1.057,2.059,1.936,3.106,2.393l2.536-6.6,2.8-6.2L23.3,23.4l-6.973-5.9,7.715-1.636-.491-4.256,4.885-3.794-.192-.172h-.811a19.868,19.868,0,0,0-17.15,9.863Zm29.332,4.02L37,21.817l-3.337.708L35.4,27.341l5.116,2.295,4.138,7.73A19.838,19.838,0,0,0,45.7,19.675Z" transform="translate(-7.597 -7.65)"/>
  </g>
</svg>
