<svg id="discount" xmlns="http://www.w3.org/2000/svg" width="47.315" height="31.969" viewBox="0 0 47.315 31.969">
  <path id="Pfad_62" data-name="Pfad 62" d="M42.254,5.733l.846,0L43.129-.2.016,0-.029,5.944l.846,0a4.944,4.944,0,0,1,4.931,5.024A5.063,5.063,0,0,1,.768,16.037l-.846,0-.029,5.928L43,21.77l.046-5.944-.846,0a4.944,4.944,0,0,1-4.931-5.024A5.063,5.063,0,0,1,42.254,5.733ZM9.105,5.053l3.32-.017a.8.8,0,0,1,.724.4.843.843,0,0,1,0,.844.82.82,0,0,1-.728.41L9.1,6.71a.812.812,0,0,1-.785-.825A.832.832,0,0,1,9.105,5.053ZM9.08,10.118l4.972-.025a.812.812,0,0,1,.81.825.832.832,0,0,1-.818.833l-4.972.025a.812.812,0,0,1-.81-.825.832.832,0,0,1,.818-.833Zm6.6,6.69-6.632.033a.812.812,0,0,1-.785-.825.832.832,0,0,1,.793-.833l6.632-.033a.8.8,0,0,1,.724.4.843.843,0,0,1,0,.844A.82.82,0,0,1,15.679,16.808Zm6.6,2.523a.832.832,0,0,1-.818.833.812.812,0,0,1-.81-.825l.008-1.694a.832.832,0,0,1,.818-.833.812.812,0,0,1,.81.825Zm.025-5.074a.832.832,0,0,1-.818.833.812.812,0,0,1-.81-.825l.008-1.686a.832.832,0,0,1,.818-.833.812.812,0,0,1,.81.825Zm.025-5.066a.832.832,0,0,1-.818.833A.812.812,0,0,1,20.7,9.2l.008-1.686a.832.832,0,0,1,.818-.833.812.812,0,0,1,.81.825Zm.025-5.066a.832.832,0,0,1-.818.833.812.812,0,0,1-.81-.825l.008-1.694a.832.832,0,0,1,.818-.833.812.812,0,0,1,.81.825Zm2.5,3.37a2.552,2.552,0,0,1,1.531-2.343,2.429,2.429,0,0,1,2.7.526,2.542,2.542,0,0,1,.528,2.745,2.5,2.5,0,0,1-2.293,1.571,2.472,2.472,0,0,1-2.463-2.5Zm1.606,8.415a.8.8,0,0,1-.751-.5.841.841,0,0,1,.18-.9L34.22,6.013a.8.8,0,0,1,1.148-.006.838.838,0,0,1-.005,1.169l-8.326,8.489a.8.8,0,0,1-.578.243Zm7.458.808a2.464,2.464,0,0,1-2.465-2.5,2.524,2.524,0,0,1,2.476-2.535,2.464,2.464,0,0,1,2.464,2.5,2.526,2.526,0,0,1-2.477,2.532Z" transform="translate(0.152 10.627) rotate(-14)"/>
  <path id="Pfad_63" data-name="Pfad 63" d="M1.688.862a.852.852,0,0,0-.513-.8A.839.839,0,0,0,.249.249a.878.878,0,0,0-.191.942.836.836,0,0,0,.78.53.863.863,0,0,0,.85-.858Z" transform="translate(27.454 10.638) rotate(-14)"/>
  <path id="Pfad_64" data-name="Pfad 64" d="M.847,0A.852.852,0,0,0,.063.527a.866.866,0,0,0,.177.936.827.827,0,0,0,.919.181.869.869,0,0,0,.522-.8A.842.842,0,0,0,.847,0Z" transform="translate(35.486 15.573) rotate(-14)"/>
</svg>
