<svg id="duration" xmlns="http://www.w3.org/2000/svg" width="31" height="35.397" viewBox="0 0 31 35.397">
  <path id="Pfad_341" data-name="Pfad 341" d="M32.815,17.543v0l0,0,0,0a1.06,1.06,0,1,0,0,2.12h3.316l0,1.233c.353-.021.708-.034,1.067-.034s.712.013,1.065.034l0-1.233h3.316a1.06,1.06,0,1,0,0-2.12Zm12.78,2.78v0a.008.008,0,0,0-.006,0A1.059,1.059,0,0,0,45.06,22.3L48.1,24.047a1.062,1.062,0,1,0,1.065-1.836l-3.036-1.745A1.073,1.073,0,0,0,45.595,20.323Zm-16.8,0v0a.019.019,0,0,0-.011,0,1.055,1.055,0,0,0-.522.141l-3.033,1.745a1.058,1.058,0,0,0-.391,1.449,1.066,1.066,0,0,0,1.455.388L29.33,22.3a1.06,1.06,0,0,0-.533-1.979Zm15.9,8.552a1.06,1.06,0,0,1,1.063,1.059v0a1.064,1.064,0,0,1-2.129,0v0A1.061,1.061,0,0,1,44.7,28.875l0,0v0ZM42.208,31.38a1.058,1.058,0,0,1,.755,1.8L39.891,36.3a2.959,2.959,0,1,1-2.7-1.734,2.971,2.971,0,0,1,1.177.243L41.447,31.7a1.059,1.059,0,0,1,.753-.315h.009ZM37.2,25.807A11.712,11.712,0,0,1,42.356,27a1.06,1.06,0,0,1-.434,2.028,1.078,1.078,0,0,1-.483-.115h0A9.586,9.586,0,1,0,33.452,46.33a1.06,1.06,0,0,1-.368,2.056,1.1,1.1,0,0,1-.428-.087v0A11.69,11.69,0,0,1,37.192,25.81h0v0h0Zm0,21.274a1.06,1.06,0,1,1-1.065,1.059A1.06,1.06,0,0,1,37.2,47.081Zm0-25.013v0h-.032c-.349,0-.7.013-1.04.036a15.476,15.476,0,1,0,1.072-.039Z" transform="translate(-21.695 -17.543)"/>
</svg>
