<svg id="firstRow" xmlns="http://www.w3.org/2000/svg" width="33.88" height="35" viewBox="0 0 33.88 35">
  <path id="Pfad_342" data-name="Pfad 342" d="M48.98,30.635,46.675,45.6v2.917a.488.488,0,0,1-.486.486H44.245a.492.492,0,0,1-.462-.331l-.861-2.586H21.262l-.86,2.586a.492.492,0,0,1-.462.331H17.995a.488.488,0,0,1-.486-.486V45.6L15.2,30.635a3.4,3.4,0,0,1,3.349-4h1.385a3.407,3.407,0,0,1,3.4,3.4V31.5h-.486a1.457,1.457,0,0,0-1.444,1.293s-.01.014-.015.019v4.035a1.463,1.463,0,0,0,1.458,1.458H41.328a1.463,1.463,0,0,0,1.458-1.458V32.813c0-.005-.01-.015-.014-.019A1.458,1.458,0,0,0,41.328,31.5h-.486V30.042a3.407,3.407,0,0,1,3.4-3.4H45.63A3.4,3.4,0,0,1,48.98,30.635ZM22.37,32.958v3.889a.487.487,0,0,0,.486.486H41.328a.487.487,0,0,0,.486-.486V32.958a.487.487,0,0,0-.486-.486H22.856A.487.487,0,0,0,22.37,32.958Zm20.417-7.036V20.806a2.433,2.433,0,0,0-2.431-2.431H37.439V31.5H39.87V30.042A4.379,4.379,0,0,1,42.787,25.922ZM26.745,31.5V18.375H23.827A2.434,2.434,0,0,0,21.4,20.806v5.116a4.378,4.378,0,0,1,2.917,4.12V31.5Zm-7.9-5.833h1.092a4.328,4.328,0,0,1,.486.029V20.806a3.407,3.407,0,0,1,3.4-3.4H40.356a3.407,3.407,0,0,1,3.4,3.4V25.7a4.344,4.344,0,0,1,.486-.029h1.092l.551-4.594A6.322,6.322,0,0,0,39.615,14H24.57a6.322,6.322,0,0,0-6.275,7.072Zm8.384-7.292V31.5h9.722V18.375Z" transform="translate(-15.152 -14)"/>
</svg>
