<svg id="food" xmlns="http://www.w3.org/2000/svg" width="33.925" height="35" viewBox="0 0 33.925 35">
  <path id="Vereinigungsmenge_18" data-name="Vereinigungsmenge 18" d="M24.822,34.244l-5.5-7.671c1.072-1.515,2.068-2.989,2.918-4.172l7.084,8.34a1.793,1.793,0,0,1-.26,2.581l-1.66,1.291A1.833,1.833,0,0,1,26.281,35,1.764,1.764,0,0,1,24.822,34.244ZM9.551,34.58,7.893,33.322a1.9,1.9,0,0,1-.332-2.693l2.1-2.581c3.691-4.17,6.752-7.858,10.145-12.288L30.766,1.486a1.174,1.174,0,0,1,2.027.295c.848,2.248,1.883,6.125.332,9.111-1.658,3.248-3.947,7.489-5.2,9.557a2.19,2.19,0,0,1-2.951.735l-2.584-1.7c-2.174,2.912-7.746,11.1-10.105,14.646a1.95,1.95,0,0,1-1.586.828A1.912,1.912,0,0,1,9.551,34.58Zm3.508-16.752a1.221,1.221,0,0,0-1.031-.441l-1.109.109a5.224,5.224,0,0,1-4.686-1.99L.295,7.906A1.348,1.348,0,0,1,.59,5.949a1.4,1.4,0,0,1,1.918.331L7.3,12.48a1.033,1.033,0,0,0,1.291.255.929.929,0,0,0,.26-1.36L3.982,5.1a1.425,1.425,0,0,1,.15-1.92,1.371,1.371,0,0,1,1.99.188l4.832,6.271a1.032,1.032,0,0,0,1.291.254A.931.931,0,0,0,12.5,8.531L7.637,2.261A1.422,1.422,0,0,1,7.783.342a1.372,1.372,0,0,1,1.99.185l5.9,7.6a5.218,5.218,0,0,1,.773,5.018l-.4,1.07a1.088,1.088,0,0,0,.188,1.105l.992,1.181c-.885,1.146-1.77,2.289-2.689,3.4Z" transform="translate(0 0)"/>
</svg>
