<svg id="gallery" xmlns="http://www.w3.org/2000/svg" width="35" height="35.005" viewBox="0 0 35 35.005">
  <path id="Pfad_735" data-name="Pfad 735" d="M26.4,14.509H5.774A.773.773,0,0,0,5,15.282v23.95a.773.773,0,0,0,.773.773H26.4a.773.773,0,0,0,.773-.773l0-23.948a.773.773,0,0,0-.773-.773Zm-1.53,18.105H7.3V17.077H24.873V32.614Zm15.111-3.909-6.2-23.134A.77.77,0,0,0,33.03,5a.726.726,0,0,0-.2.027L12.907,10.363a.767.767,0,0,0-.544.945l.439,1.641H15.4l-.175-.653L32.191,7.749l4.022,15.009-7.492,2.007v7.751l10.708-2.87a.767.767,0,0,0,.544-.945Z" transform="translate(-5.001 -5)"/>
</svg>
