<svg id="drink" xmlns="http://www.w3.org/2000/svg" width="27.335" height="40" viewBox="0 0 27.335 40">
  <path id="Vereinigungsmenge_16" data-name="Vereinigungsmenge 16" d="M4.406,37.84l.307-1.54,4.617.928,2-10.006-1.156-.232a6.376,6.376,0,0,1-4.822-8.16L11.271,0l12.15,2.441-1.8,19.651a6.387,6.387,0,0,1-6.344,5.8,6.106,6.106,0,0,1-1.252-.128l-1.156-.229-2.008,10,4.615.928L15.176,40ZM9.709,10.2H21.137l.6-6.492L12.342,1.815Zm14.51,22.467a3.933,3.933,0,0,0-2.7-2.7.152.152,0,0,1,0-.3,3.924,3.924,0,0,0,2.7-2.7.155.155,0,0,1,.3,0,3.924,3.924,0,0,0,2.7,2.7.152.152,0,0,1,0,.3,3.933,3.933,0,0,0-2.7,2.7.154.154,0,0,1-.3,0ZM2.818,9.124a3.941,3.941,0,0,0-2.7-2.7.152.152,0,0,1,0-.3,3.935,3.935,0,0,0,2.7-2.7.152.152,0,0,1,.3,0,3.925,3.925,0,0,0,2.7,2.7.153.153,0,0,1,0,.3,3.931,3.931,0,0,0-2.7,2.7.158.158,0,0,1-.15.12A.149.149,0,0,1,2.818,9.124Z" transform="translate(0)"/>
</svg>
