<svg id="group" xmlns="http://www.w3.org/2000/svg" xmlns:xlink="http://www.w3.org/1999/xlink" width="36.263" height="25" viewBox="0 0 36.263 25">
  <defs>
    <clipPath id="clip-path">
      <rect id="Rechteck_1420" data-name="Rechteck 1420" width="36.263" height="25"/>
    </clipPath>
  </defs>
  <g id="Gruppe_953" data-name="Gruppe 953">
    <g id="Gruppe_952" data-name="Gruppe 952" clip-path="url(#clip-path)">
      <path id="Pfad_799" data-name="Pfad 799" d="M14.368,25a1.921,1.921,0,0,0,.134-.727v-6.7a5.652,5.652,0,0,0-3.062-5.01,5.411,5.411,0,0,1,3.542-1.325h6.306a5.4,5.4,0,0,1,3.524,1.32,5.665,5.665,0,0,0-3.062,5.014v6.7a1.971,1.971,0,0,0,.134.727Zm9.564,0a.726.726,0,0,1-.729-.721v-6.7a4.2,4.2,0,0,1,4.183-4.193H32.08a4.2,4.2,0,0,1,4.183,4.191v6.7a.723.723,0,0,1-.724.722h0ZM.717,25A.72.72,0,0,1,0,24.273v-6.7a4.189,4.189,0,0,1,4.183-4.193H8.868a4.194,4.194,0,0,1,4.185,4.193v6.7a.725.725,0,0,1-.727.722ZM25.972,8.621a3.765,3.765,0,1,1,3.767,3.762h-.007a3.764,3.764,0,0,1-3.761-3.762m-23.212,0a3.765,3.765,0,1,1,3.769,3.762h0A3.771,3.771,0,0,1,2.76,8.621M13.273,4.853a4.858,4.858,0,1,1,4.858,4.863,4.858,4.858,0,0,1-4.858-4.863" transform="translate(0 0)"/>
    </g>
  </g>
</svg>
