<svg id="history" xmlns="http://www.w3.org/2000/svg" width="35" height="35.521" viewBox="0 0 35 35.521">
  <path id="Vereinigungsmenge_19" data-name="Vereinigungsmenge 19" d="M18.328,35.521V33.867h.006a.986.986,0,0,0,.142-.007,2.974,2.974,0,0,0,1.314-.531,1.593,1.593,0,0,1,.623-.238l12.933-2.16V14.285H35V32.336L20.675,34.721a4.26,4.26,0,0,1-2.331.8Zm-1.688,0a4.373,4.373,0,0,1-2.334-.8L0,32.336V14.285H1.654V30.93L14.6,33.09a1.577,1.577,0,0,1,.611.238,3,3,0,0,0,1.316.531.992.992,0,0,0,.141.007h.01v1.654Zm1.688-19.79a2.343,2.343,0,0,1,1.957-2.25L30.965,11.7V28.914L20.012,30.739a3.993,3.993,0,0,0-1.684.707ZM14.985,30.739,4.036,28.914V11.7l10.677,1.779a2.344,2.344,0,0,1,1.961,2.323v15.64A4.006,4.006,0,0,0,14.985,30.739Zm.76-19.608V5.525H14.09v5.317L10.882,10.3V3.6L9.71,4.3a.933.933,0,0,1-.091.058A2.349,2.349,0,1,1,8.4,0H26.6A2.349,2.349,0,1,1,25.38,4.359a.766.766,0,0,1-.091-.058l-1.173-.7V10.3l-3.209.539V5.525H19.253v5.606a6.36,6.36,0,0,0-1.753.663A6.476,6.476,0,0,0,15.746,11.131Z"/>
</svg>
