<svg id="language" xmlns="http://www.w3.org/2000/svg" width="33.86" height="30" viewBox="0 0 33.86 30">
  <path id="Pfad_340" data-name="Pfad 340" d="M33.2,13.617l-22.055,0a2.257,2.257,0,0,0-2.21,2.245V32.135a2.258,2.258,0,0,0,2.228,2.247h3.877v3.226a.975.975,0,0,0,1.54.8l5.665-4.022H33.2a2.256,2.256,0,0,0,2.226-2.247V15.864A2.256,2.256,0,0,0,33.2,13.617Zm7.388,5.035H37.875a.972.972,0,0,0-.971.973l0,12.516a3.735,3.735,0,0,1-3.685,3.717h-10.5l-2.572,1.83a.973.973,0,0,0,.617,1.727h8.728l5.665,4.022a.975.975,0,0,0,.565.18.988.988,0,0,0,.448-.11.976.976,0,0,0,.527-.867V39.415h3.877A2.258,2.258,0,0,0,42.8,37.168V20.9a2.254,2.254,0,0,0-2.208-2.244Z" transform="translate(-8.938 -13.617)"/>
</svg>
