<svg id="list" xmlns="http://www.w3.org/2000/svg" width="30" height="21.082" viewBox="0 0 30 21.082">
  <path id="Vereinigungsmenge_10" data-name="Vereinigungsmenge 10" d="M21152.063,17717.086a1.625,1.625,0,0,1,0-3.25h18.316a1.625,1.625,0,0,1,0,3.25Zm-8.437,0a1.625,1.625,0,0,1,0-3.25h2.973a1.625,1.625,0,0,1,0,3.25Zm8.438-8.922a1.621,1.621,0,1,1,0-3.242h18.316a1.621,1.621,0,1,1,0,3.242Zm-8.437,0a1.621,1.621,0,0,1,0-3.242h2.973a1.621,1.621,0,0,1,0,3.242Zm8.438-8.918a1.621,1.621,0,1,1,0-3.242h18.316a1.621,1.621,0,1,1,0,3.242Zm-8.437,0a1.621,1.621,0,0,1,0-3.242h2.973a1.621,1.621,0,0,1,0,3.242Z" transform="translate(-21142.004 -17696.004)" fill="#231f21"/>
</svg>
