<svg id="magazine" xmlns="http://www.w3.org/2000/svg" width="30" height="31.06" viewBox="0 0 30 31.06">
  <path id="Vereinigungsmenge_15" data-name="Vereinigungsmenge 15" d="M15.7,6.983c1.133-.809,2.908-1.824,3.985-1.824a13.945,13.945,0,0,1,4.091.71,11.509,11.509,0,0,0,3.486.617H30l-.34,24.245H27.284A19.069,19.069,0,0,1,24.2,30.3a24.811,24.811,0,0,0-4.516-.571A7.676,7.676,0,0,0,15.7,31.06ZM0,6.654H2.768v18.1a1,1,0,0,0,.83,1,20.166,20.166,0,0,1,5.647,1.858,9.432,9.432,0,0,1,2.5,2.179A10.745,10.745,0,0,0,6.74,30,23.32,23.32,0,0,1,0,30.788Zm10.241,19.2A20.465,20.465,0,0,0,4.76,23.908V0a14.5,14.5,0,0,1,5.1,1.673c1.375.914,3.154,3.783,3.871,5.065V29.067A11.9,11.9,0,0,0,10.241,25.854Z"/>
</svg>
