<svg id="openingHours" xmlns="http://www.w3.org/2000/svg" width="35" height="37.935" viewBox="0 0 35 37.935">
  <path id="Vereinigungsmenge_17" data-name="Vereinigungsmenge 17" d="M0,20.411A17.534,17.534,0,0,1,15.129,3.059l-.8-.621A1.355,1.355,0,0,1,15.986.3L19.749,3.22a1.355,1.355,0,0,1-.9,2.413,14.824,14.824,0,1,0-1.328,29.589c15.623-.117,20.5-21.213,6.491-28.131a1.356,1.356,0,0,1,1.192-2.435c16.576,8.27,10.836,33.062-7.682,33.278A17.543,17.543,0,0,1,0,20.411Zm18.881,9.312v-.111a1.357,1.357,0,1,0-2.71.111v2.737a12.155,12.155,0,0,1-10.7-10.7h2.74a1.357,1.357,0,1,0,0-2.708H5.469a12.148,12.148,0,0,1,10.7-10.7V11.09a1.359,1.359,0,1,0,2.71,0V8.354a12.134,12.134,0,0,1,10.684,10.7h-2.83a1.354,1.354,0,0,0,0,2.708h2.83a12.141,12.141,0,0,1-10.684,10.7ZM16.166,16.117v4.292c-.114.847,1.709,2.144,2.535,3.086a1.35,1.35,0,0,0,1.909-1.91l-1.733-1.733V16.117a1.356,1.356,0,0,0-2.712,0Z" transform="translate(0 0)"/>
</svg>
