<svg id="recommendation" xmlns="http://www.w3.org/2000/svg" width="34.397" height="34.397" viewBox="0 0 34.397 34.397">
  <path id="Pfad_129" data-name="Pfad 129" d="M30.822,9.014l.687,1.945a1.928,1.928,0,0,0,2.182,1.261l2.029-.378A1.937,1.937,0,0,1,37.979,14.1L37.6,16.13a1.927,1.927,0,0,0,1.261,2.182L40.807,19a1.939,1.939,0,0,1,.827,3.088l-1.341,1.569a1.925,1.925,0,0,0,0,2.519l1.341,1.569a1.939,1.939,0,0,1-.827,3.088l-1.945.687A1.928,1.928,0,0,0,37.6,33.7l.378,2.029a1.937,1.937,0,0,1-2.259,2.259l-2.029-.378a1.927,1.927,0,0,0-2.182,1.261l-.687,1.945a1.939,1.939,0,0,1-3.088.827L26.165,40.3a1.925,1.925,0,0,0-2.519,0l-1.569,1.341a1.939,1.939,0,0,1-3.088-.827L18.3,38.872a1.928,1.928,0,0,0-2.182-1.261l-2.029.378a1.937,1.937,0,0,1-2.259-2.259L12.21,33.7a1.927,1.927,0,0,0-1.26-2.182L9,30.832a1.939,1.939,0,0,1-.827-3.088l1.341-1.569a1.925,1.925,0,0,0,0-2.519L8.177,22.087A1.939,1.939,0,0,1,9,19l1.945-.687a1.928,1.928,0,0,0,1.26-2.182L11.832,14.1a1.937,1.937,0,0,1,2.259-2.259l2.029.378A1.927,1.927,0,0,0,18.3,10.959l.687-1.945a1.939,1.939,0,0,1,3.088-.827l1.568,1.341a1.927,1.927,0,0,0,2.52,0l1.569-1.341a1.939,1.939,0,0,1,3.088.827ZM27.3,21.151h4.315A1.152,1.152,0,0,1,32.762,22.3v8.525a1.151,1.151,0,0,1-1.148,1.148H23.089a1.151,1.151,0,0,1-1.148-1.148V20.09l2.82-4.438a1.152,1.152,0,0,1,1-.554h.358a1.183,1.183,0,0,1,1.18,1.18v4.874Zm-10.013,0h1.566A1.151,1.151,0,0,1,20,22.3v8.525a1.151,1.151,0,0,1-1.148,1.148H17.286a1.152,1.152,0,0,1-1.148-1.148V22.3a1.152,1.152,0,0,1,1.148-1.148Z" transform="translate(-7.707 -7.717)" fill-rule="evenodd"/>
</svg>
