<svg id="route" xmlns="http://www.w3.org/2000/svg" width="28.832" height="40" viewBox="0 0 28.832 40">
  <path id="Pfad_721" data-name="Pfad 721" d="M35.987,17.488a5.037,5.037,0,1,1-5.043,5.035,5.035,5.035,0,0,1,5.043-5.035Zm-.01-6.938a11.974,11.974,0,0,0-9.645,19.065L35.2,42.155a.984.984,0,0,0,1.573-.016l9-12.729a11.974,11.974,0,0,0-9.8-18.861Zm-7.56,24.989c-3.979,1.347-6.851,3.769-6.851,6.912,0,4.938,7.083,8.1,14.417,8.1S50.4,47.389,50.4,42.451c0-3.141-2.87-5.566-6.849-6.912l-1.493,2.113c1.666.881,2.593,2.072,2.593,3.153,0,2.046-3.316,4.482-8.665,4.482s-8.667-2.436-8.667-4.482c0-1.081.929-2.274,2.595-3.155Z" transform="translate(-21.566 -10.55)"/>
</svg>
