<svg id="routePlan" xmlns="http://www.w3.org/2000/svg" xmlns:xlink="http://www.w3.org/1999/xlink" width="36.359" height="25" viewBox="0 0 36.359 25">
  <defs>
    <clipPath id="clip-path">
      <rect id="Rechteck_1418" data-name="Rechteck 1418" width="36.359" height="25"/>
    </clipPath>
  </defs>
  <g id="Gruppe_949" data-name="Gruppe 949">
    <g id="Gruppe_948" data-name="Gruppe 948" clip-path="url(#clip-path)">
      <path id="Pfad_794" data-name="Pfad 794" d="M37.268,0a4.545,4.545,0,0,0-4.545,4.545c0,4.244,4.045,7.158,4.216,7.283a.568.568,0,0,0,.658,0c.171-.125,4.216-3.039,4.216-7.283A4.545,4.545,0,0,0,37.268,0m0,6.818A2.273,2.273,0,1,1,39.54,4.545a2.273,2.273,0,0,1-2.272,2.273" transform="translate(-5.454)"/>
      <path id="Pfad_795" data-name="Pfad 795" d="M8.522,2.727A8.521,8.521,0,0,0,0,11.249c0,8.2,7.857,13.862,8.193,14.1a.568.568,0,0,0,.658,0c.336-.239,8.192-5.9,8.192-14.1A8.521,8.521,0,0,0,8.522,2.727m0,12.5A3.977,3.977,0,1,1,12.5,11.249a3.977,3.977,0,0,1-3.977,3.977" transform="translate(0 -0.454)"/>
      <path id="Pfad_796" data-name="Pfad 796" d="M30.54,18.492H24.913a1.773,1.773,0,0,1,0-3.545h5.892a.884.884,0,1,0,0-1.767H24.913a3.54,3.54,0,1,0,0,7.08H30.54a2.569,2.569,0,0,1,0,5.138H16.994a.884.884,0,1,0,0,1.767H30.54a4.337,4.337,0,1,0,0-8.673" transform="translate(-2.685 -2.197)"/>
    </g>
  </g>
</svg>
