<svg id="seatplan" xmlns="http://www.w3.org/2000/svg" width="44.171" height="30" viewBox="0 0 44.171 30">
  <path id="Pfad_725" data-name="Pfad 725" d="M43.128,14.461h-.145V9.9a4.947,4.947,0,0,0-4.94-4.947H36.578A5.078,5.078,0,0,0,31.513,0H27.727a5.071,5.071,0,0,0-5.058,4.94h-.38A5.092,5.092,0,0,0,17.2,0H13.4A5.1,5.1,0,0,0,8.291,4.968H5.983a4.947,4.947,0,0,0-4.94,4.947v4.546h0A1.036,1.036,0,0,0,0,15.5V28.964A1.036,1.036,0,0,0,1.036,30H2.722a1.036,1.036,0,0,0,0-2.073H2.073V25.5H13.729a.912.912,0,0,0,.3-.055V27.92h-.649a1.036,1.036,0,1,0,0,2.073h3.365a1.036,1.036,0,1,0,0-2.073h-.643V25.5H27.761a.87.87,0,0,0,.3-.055V27.92h-.643a1.036,1.036,0,1,0,0,2.073h3.365a1.036,1.036,0,1,0,0-2.073h-.649V25.488h11.96v2.439h-.636a1.036,1.036,0,0,0,0,2.073h1.679a1.036,1.036,0,0,0,1.036-1.036V15.5a1.036,1.036,0,0,0-1.043-1.036ZM12.692,23.436H3.116V21.419h9.576ZM15.076,9.915v4.546h0a1.078,1.078,0,0,0-.3.048V9.915A4.954,4.954,0,0,0,10.364,5,3.026,3.026,0,0,1,13.4,2.073H17.2A3.012,3.012,0,0,1,20.21,4.968h-.173a4.947,4.947,0,0,0-4.961,4.947ZM26.725,23.436H17.149V21.419h9.576ZM29.261,9.915v4.595h-.166a1.071,1.071,0,0,0-.3.048V9.915a4.94,4.94,0,0,0-4.063-4.836,3.006,3.006,0,0,1,2.992-3.006h3.786A2.992,2.992,0,0,1,34.5,4.94h-.3a4.947,4.947,0,0,0-4.94,4.975ZM40.91,23.436H31.333V21.419H40.91Z" transform="translate(0 0)"/>
</svg>
