<svg id="accessibility" xmlns="http://www.w3.org/2000/svg" width="35" height="35" viewBox="0 0 35 35">
  <path id="Pfad_724" data-name="Pfad 724" d="M22.5,5A17.5,17.5,0,1,0,40,22.5,17.508,17.508,0,0,0,22.5,5ZM19.943,21.629A37.6,37.6,0,0,1,17.6,31.739a1.548,1.548,0,0,0,2.9,1.1,41.54,41.54,0,0,0,2-7.084,41.577,41.577,0,0,0,2,7.084,1.548,1.548,0,0,0,2.9-1.1,37.607,37.607,0,0,1-2.339-10.1,49.952,49.952,0,0,0,5.565-.587,1.548,1.548,0,1,0-.5-3.057,48.159,48.159,0,0,1-15.262,0,1.548,1.548,0,0,0-.478,3.059A53.716,53.716,0,0,0,19.943,21.629ZM22.5,11.723a2.795,2.795,0,1,1-2.795,2.795A2.8,2.8,0,0,1,22.5,11.723Z" transform="translate(-5 -5)" fill-rule="evenodd"/>
</svg>
