<svg id="stage" xmlns="http://www.w3.org/2000/svg" width="36.336" height="36.336" viewBox="0 0 36.336 36.336">
  <g id="Gruppe_463" data-name="Gruppe 463">
    <path id="Vereinigungsmenge_21" data-name="Vereinigungsmenge 21" d="M29.029,36.336a26.627,26.627,0,0,1,2.887-11.852h4.42V36.336Zm-20.428,0a28.354,28.354,0,0,0-2.727-11.86A1.676,1.676,0,0,0,6.7,21.388c7.53-3.968,10.391-11.173,11.47-16.268,1.079,5.095,3.944,12.3,11.47,16.268h0a1.677,1.677,0,0,0,.822,3.089,28.354,28.354,0,0,0-2.727,11.86Zm-8.6,0V24.484H4.42A26.617,26.617,0,0,1,7.306,36.336ZM30.542,23.184a.384.384,0,0,1,0-.768h5.791v.768ZM0,23.184v-.768H5.791a.384.384,0,0,1,0,.768Zm32.119-2.063C20.049,16.214,18.92,3.019,18.82,0H28.6a7.742,7.742,0,0,1,7.732,7.733V21.121ZM22.081,3.424a.646.646,0,0,0-.552.732A20.127,20.127,0,0,0,31.967,18.1a.659.659,0,0,0,.3.076.649.649,0,0,0,.3-1.223A19.155,19.155,0,0,1,22.816,3.972a.649.649,0,0,0-.638-.557A.609.609,0,0,0,22.081,3.424ZM0,21.121V7.735A7.744,7.744,0,0,1,7.732,0h9.781c-.1,3.016-1.226,16.214-13.295,21.121ZM12.451,7.453a18.958,18.958,0,0,1-8.688,9.5.647.647,0,0,0,.3,1.22.614.614,0,0,0,.3-.073,20.227,20.227,0,0,0,9.28-10.142.654.654,0,0,0-.342-.848.646.646,0,0,0-.852.342Zm1.073-3.481c-.007.018-.048.3-.17.791a.658.658,0,0,0,.473.786.79.79,0,0,0,.155.018.654.654,0,0,0,.631-.5c.144-.559.188-.9.194-.909a.657.657,0,0,0-.552-.74.631.631,0,0,0-.092-.005A.643.643,0,0,0,13.523,3.972Z"/>
  </g>
</svg>
