<svg id="sustainability" xmlns="http://www.w3.org/2000/svg" width="34.901" height="35" viewBox="0 0 34.901 35">
  <path id="Pfad_726" data-name="Pfad 726" d="M18.916,23.9c2.632.849,5.587-2.716,6.354-4.063,1.695-2.978,1.933-7.524,2.4-9.286a.292.292,0,0,0-.07-.265.314.314,0,0,0-.259-.11c-7.533.566-13.972,4.566-11.615,11.577.25.683.615,1.1.847.59a13.955,13.955,0,0,1,6.013-9.195.1.1,0,0,1,.125.019.082.082,0,0,1,0,.116,21.435,21.435,0,0,0-4.356,6.773c-.344.926-.427,1.93-.678,2.893a10.762,10.762,0,0,0-.254,1.612c-.1,1.051,1.189,1.073,1.314.135.071-.273.125-.521.18-.8ZM16.841.012Q17.169,0,17.5,0A17.5,17.5,0,0,1,34.9,15.6a.546.546,0,0,1-.544.605H31.006a.544.544,0,0,1-.542-.473A13.084,13.084,0,0,0,17.5,4.417h-.153A.544.544,0,0,1,16.8,3.95L16.32.637a.529.529,0,0,1,.121-.428.528.528,0,0,1,.4-.2ZM34.9,19.4A17.5,17.5,0,1,1,4.882,5.375L3.891,4.26a1.094,1.094,0,0,1,.715-1.816L11.1,1.833a1.094,1.094,0,0,1,1.172,1.318L10.9,9.53a1.094,1.094,0,0,1-1.887.5L7.828,8.689A13.083,13.083,0,1,0,30.464,19.267a.545.545,0,0,1,.542-.474h3.348a.547.547,0,0,1,.544.605Zm-21.93,3.676c-1.234.765-3.225-.69-3.8-1.284-1.267-1.313-2-3.61-2.471-4.455a.151.151,0,0,1,0-.144.162.162,0,0,1,.118-.089c3.933-.654,7.767.587,7.5,4.473-.037.381-.167.641-.355.409A7.542,7.542,0,0,0,9.65,18.028a.055.055,0,0,0-.061.025.044.044,0,0,0,.014.06,11.611,11.611,0,0,1,3.138,2.922c.3.431.477.935.735,1.4a5.785,5.785,0,0,1,.346.793c.193.526-.465.7-.655.234-.073-.131-.134-.251-.2-.385Z" transform="translate(0 0)" fill-rule="evenodd"/>
</svg>
