<svg id="termine" xmlns="http://www.w3.org/2000/svg" xmlns:xlink="http://www.w3.org/1999/xlink" width="36.222" height="25" viewBox="0 0 36.222 25">
  <defs>
    <clipPath id="clip-path">
      <rect id="Rechteck_1422" data-name="Rechteck 1422" width="36.222" height="25"/>
    </clipPath>
  </defs>
  <g id="Gruppe_956" data-name="Gruppe 956" clip-path="url(#clip-path)">
    <path id="Pfad_801" data-name="Pfad 801" d="M26.994,20.366a6.863,6.863,0,1,1,6.858,6.869,6.864,6.864,0,0,1-6.858-6.869m7.553-3.425a.686.686,0,1,0-1.373,0l0,2.719c0,.16,0,.323.013.464a1.28,1.28,0,0,0,.5.946,4.438,4.438,0,0,0,.379.268l1.466.979a.687.687,0,0,0,.763-1.143l-1.448-.966c-.16-.107-.241-.162-.3-.206h0v0c-.007-.07-.007-.167-.007-.36Z" transform="translate(-4.499 -2.251)" fill-rule="evenodd"/>
    <path id="Pfad_802" data-name="Pfad 802" d="M22.509,15.413v0a.678.678,0,0,0-.683-.672H19.551a.693.693,0,0,0-.68.675v1.678a.693.693,0,0,0,.68.687h2.275a.7.7,0,0,0,.683-.687Z" transform="translate(-3.145 -2.456)"/>
    <path id="Pfad_803" data-name="Pfad 803" d="M21.077,21.73a1.042,1.042,0,0,1-.9.522H4.257a1.046,1.046,0,0,1-1.039-1.046v-9.3A1.025,1.025,0,0,1,4.257,10.9H20.147A1.051,1.051,0,0,1,21.2,11.945v3.189a8.894,8.894,0,0,1,3.172-3.867V4.753A2.072,2.072,0,0,0,22.3,2.681h-2.23V4.274a2.514,2.514,0,0,1-2.509,2.515h-.44A2.516,2.516,0,0,1,14.6,4.274V2.681H9.834V4.274A2.513,2.513,0,0,1,7.326,6.788h-.47A2.516,2.516,0,0,1,4.341,4.274V2.681H2.1A2.1,2.1,0,0,0,0,4.791v18.55a2.11,2.11,0,0,0,2.114,2.106h20.15c.408,0,1.061,0,1.413,0a8.917,8.917,0,0,1-2.6-3.717" transform="translate(0 -0.447)"/>
    <path id="Pfad_804" data-name="Pfad 804" d="M8.043,5.055H8.5A1.221,1.221,0,0,0,9.713,3.827V1.333A1.337,1.337,0,0,0,8.376,0H8.149A1.34,1.34,0,0,0,6.813,1.333V3.827a.627.627,0,0,0,0,.079,1.19,1.19,0,0,0,1.23,1.149" transform="translate(-1.135)"/>
    <path id="Pfad_805" data-name="Pfad 805" d="M20.259,5.055h.448a1.227,1.227,0,0,0,1.225-1.228V1.333A1.336,1.336,0,0,0,20.6,0h-.233a1.346,1.346,0,0,0-1.34,1.333v2.5a1.229,1.229,0,0,0,1.233,1.223" transform="translate(-3.171)"/>
    <path id="Pfad_806" data-name="Pfad 806" d="M15.459,20.3H13.18a.693.693,0,0,0-.683.682v1.675a.692.692,0,0,0,.683.68h2.279a.689.689,0,0,0,.677-.68V20.979a.691.691,0,0,0-.677-.682" transform="translate(-2.083 -3.383)"/>
    <path id="Pfad_807" data-name="Pfad 807" d="M9.042,20.3H6.766a.693.693,0,0,0-.68.682v1.675a.693.693,0,0,0,.68.68H9.042a.692.692,0,0,0,.683-.68V20.962a.675.675,0,0,0-.683-.665" transform="translate(-1.014 -3.383)"/>
    <path id="Pfad_808" data-name="Pfad 808" d="M9.725,15.413v-.007a.676.676,0,0,0-.683-.668H6.767a.693.693,0,0,0-.68.675v1.678a.693.693,0,0,0,.68.687H9.042a.691.691,0,0,0,.683-.687Z" transform="translate(-1.014 -2.456)"/>
    <path id="Pfad_809" data-name="Pfad 809" d="M16.134,15.413a.692.692,0,0,0-.677-.675H13.179a.694.694,0,0,0-.683.675v1.678a.7.7,0,0,0,.683.687h2.278a.692.692,0,0,0,.677-.687Z" transform="translate(-2.083 -2.456)"/>
    <path id="Pfad_810" data-name="Pfad 810" d="M21.826,20.3H19.55a.693.693,0,0,0-.68.682v1.675a.693.693,0,0,0,.68.68h2.276a.692.692,0,0,0,.683-.68V20.967a.676.676,0,0,0-.683-.67" transform="translate(-3.145 -3.383)"/>
  </g>
</svg>
