<svg id="ticket" xmlns="http://www.w3.org/2000/svg" width="36.228" height="25" viewBox="0 0 36.228 25">
  <path id="Pfad_769" data-name="Pfad 769" d="M34.977,10.04a1.25,1.25,0,0,0,1.25-1.25V1.29A1.25,1.25,0,0,0,34.977.04H1.25A1.25,1.25,0,0,0,0,1.29v7.5a1.25,1.25,0,0,0,1.25,1.25,2.5,2.5,0,0,1,0,5A1.25,1.25,0,0,0,0,16.29v7.5a1.25,1.25,0,0,0,1.25,1.25H34.977a1.25,1.25,0,0,0,1.25-1.25v-7.5a1.25,1.25,0,0,0-1.25-1.25,2.5,2.5,0,0,1,0-5M12.5,21.29v-2.5a1.25,1.25,0,0,0-2.5,0v2.5a1.25,1.25,0,1,0,2.5,0m0-7.5v-2.5a1.25,1.25,0,1,0-2.5,0v2.5a1.25,1.25,0,1,0,2.5,0m0-7.5V3.79a1.25,1.25,0,1,0-2.5,0v2.5a1.25,1.25,0,0,0,2.5,0" transform="translate(0 -0.04)" fill-rule="evenodd"/>
</svg>
