<svg id="visitors" xmlns="http://www.w3.org/2000/svg" width="24.489" height="36.417" viewBox="0 0 24.489 36.417">
  <path id="Pfad_438" data-name="Pfad 438" d="M37.265,29.437c-.176,1.385-.8,1.016-1.071,2.488-.447,2.12-.89,6.179-1.518,8.3-.267,1.016-.447,1.2-.981,1.2H29.5c-.533,0-.714-.187-.981-1.2-.624-2.12-1.071-6.179-1.518-8.3-.267-1.476-.8-1.1-1.071-2.488a50.67,50.67,0,0,1-.533-10.42c0-1.385,3.032-2.488,6.245-2.488s6.155,1.1,6.155,2.488A50.671,50.671,0,0,1,37.265,29.437ZM31.648,14.963a4.88,4.88,0,0,0,4.817-4.978,4.881,4.881,0,0,0-4.817-4.978,4.956,4.956,0,0,0-4.908,4.978A4.9,4.9,0,0,0,31.648,14.963Zm4.051-.425a3.962,3.962,0,0,0,7.362-2.14,3.989,3.989,0,0,0-3.938-4.071,4.064,4.064,0,0,0-1.62.335,6.338,6.338,0,0,1,.138,1.32A6.269,6.269,0,0,1,35.7,14.539Zm8.457,5.248c0-1.133-2.479-2.036-5.032-2.036-.176,0-.352,0-.53.016a2.245,2.245,0,0,1,.385,1.193,52.125,52.125,0,0,1-.549,10.664,3.215,3.215,0,0,1-.757,1.8,1.245,1.245,0,0,0-.317.724c-.173.822-.342,1.91-.521,3.067-.093.6-.188,1.209-.287,1.8.008.036.02.07.028.1.216.83.365.983.8.983H40.8c.435,0,.581-.153.8-.983.51-1.732.875-5.046,1.24-6.783.219-1.206.729-.9.875-2.036a41.432,41.432,0,0,0,.44-8.514Zm-18.3,12.4a1.439,1.439,0,0,0-.325-.8,3.642,3.642,0,0,1-.749-1.7l-.008-.052a51.587,51.587,0,0,1-.549-10.659,2.315,2.315,0,0,1,.38-1.206c-2.519.057-4.828.934-4.828,2.028a41.431,41.431,0,0,0,.44,8.514c.219,1.133.656.83.875,2.036.365,1.736.729,5.05,1.24,6.783.219.83.365.983.8.983h3.428a.832.832,0,0,0,.279-.036c-.161-.906-.317-1.886-.467-2.848-.181-1.157-.349-2.246-.513-3.03Zm-.976-15.717a3.876,3.876,0,0,0,3.083-1.525,6.185,6.185,0,0,1-2.4-4.962,6.53,6.53,0,0,1,.184-1.554,3.572,3.572,0,0,0-.867-.1A4,4,0,0,0,20.875,12.4a4,4,0,0,0,4.008,4.071Z" transform="translate(-19.726 -5.007)"/>
</svg>
