<svg id="backstage" xmlns="http://www.w3.org/2000/svg" width="44.699" height="35.838" viewBox="0 0 44.699 35.838">
  <path id="Vereinigungsmenge_14" data-name="Vereinigungsmenge 14" d="M.615,35.838A.623.623,0,0,1,0,35.212a.636.636,0,0,1,.615-.632l1.6.008V26.727a2.243,2.243,0,0,0,.628.076,2.575,2.575,0,0,0,1.694-.626q2.2.839,4.39,1.468v1.311a54.636,54.636,0,0,1-5.452-1.84v7.472h6.713V29.3c.634.159,1.258.307,1.891.442v4.849h1.261v-4.6a48.209,48.209,0,0,0,18,0v4.6h1.261V29.731c.628-.127,1.261-.275,1.888-.44v5.3H41.22V27.116a55,55,0,0,1-5.454,1.84V27.65c1.468-.419,2.929-.918,4.392-1.474a2.59,2.59,0,0,0,1.692.632,2.464,2.464,0,0,0,.626-.082v7.861h1.607V34.58a.638.638,0,0,1,.617.632.626.626,0,0,1-.617.626ZM13.34,28.707V3.143H31.35V28.707a47.131,47.131,0,0,1-9,.867A47.141,47.141,0,0,1,13.34,28.707Zm12.81-8.33a1.334,1.334,0,0,0,2.278.943,1.333,1.333,0,0,0,.294-1.449,1.357,1.357,0,0,0-1.233-.823A1.342,1.342,0,0,0,26.15,20.377Zm-.3-4.938a.625.625,0,0,0,.645-.628.613.613,0,0,0-.188-.446.623.623,0,0,0-.457-.18H18.843a.6.6,0,0,0-.455.18.626.626,0,0,0,.455,1.074ZM21.829,8.734a.634.634,0,0,1-.463.355l-1.157.192.854.8a.6.6,0,0,1,.193.546l-.165,1.155,1.024-.565A.609.609,0,0,1,22.7,11.2l1.047.512-.228-1.144a.655.655,0,0,1,.167-.558l.819-.829-1.157-.137a.649.649,0,0,1-.488-.34L22.32,7.675ZM32.611,2.512a.61.61,0,0,0-.19-.444.594.594,0,0,0-.442-.182H12.712a.625.625,0,0,0-.628.626V28.443c-.634-.131-1.258-.286-1.891-.45V0H34.5V28c-.626.163-1.26.313-1.888.451ZM1.519,24.219a1.333,1.333,0,1,1,1.334,1.33A1.328,1.328,0,0,1,1.519,24.219Zm39.818,1.225a1.33,1.33,0,1,1,1.449-.294,1.346,1.346,0,0,1-1.449.294Z"/>
</svg>
